<?xml version="1.0" encoding="utf-8"?>
<!-- Generator: Adobe Illustrator 26.3.1, SVG Export Plug-In . SVG Version: 6.00 Build 0)  -->
<svg version="1.1" id="Layer_1" xmlns="http://www.w3.org/2000/svg" xmlns:xlink="http://www.w3.org/1999/xlink" x="0px" y="0px"
	 viewBox="0 0 140 140" style="enable-background:new 0 0 140 140;" xml:space="preserve">
<style type="text/css">
	.st0{stroke:#000000;stroke-width:2;stroke-miterlimit:10;}
	.st1{stroke:#000000;stroke-width:2;}
</style>
<g>
	<g>
		<g>
			<g>
				<path class="st0" d="M35.1,135C18.5,135,5,121.5,5,104.9s13.5-30.1,30.1-30.1c16.6,0,30.1,13.5,30.1,30.1S51.7,135,35.1,135z
					 M35.1,76.8C19.6,76.8,7,89.4,7,104.9S19.6,133,35.1,133s28.1-12.6,28.1-28.1S50.6,76.8,35.1,76.8z"/>
			</g>
			<g>
				<path class="st0" d="M35.1,130c-2.4,0-4.8-0.3-7.1-1c-0.5-0.2-0.8-0.7-0.7-1.2c0.2-0.5,0.7-0.8,1.2-0.7c2.1,0.6,4.3,0.9,6.5,0.9
					c0.6,0,1,0.4,1,1c0,0.6-0.4,1-0.9,1C35.2,130,35.1,130,35.1,130z M42,129c-0.4,0-0.8-0.3-1-0.7c-0.2-0.5,0.1-1.1,0.7-1.2
					c2.1-0.6,4.1-1.6,6-2.8c0.5-0.3,1.1-0.2,1.4,0.3c0.3,0.5,0.2,1.1-0.3,1.4c-2,1.3-4.2,2.3-6.5,3C42.2,129,42.1,129,42,129z
					 M22.1,126.2c-0.2,0-0.4-0.1-0.5-0.2c-2-1.3-3.8-2.9-5.4-4.7c-0.4-0.4-0.3-1,0.1-1.4c0.4-0.4,1-0.3,1.4,0.1
					c1.4,1.7,3.1,3.1,5,4.3c0.5,0.3,0.6,0.9,0.3,1.4C22.7,126,22.4,126.2,22.1,126.2z M53.4,121.6c-0.2,0-0.5-0.1-0.7-0.2
					c-0.4-0.4-0.5-1-0.1-1.4c1.4-1.7,2.6-3.5,3.5-5.5c0.2-0.5,0.8-0.7,1.3-0.5c0.5,0.2,0.7,0.8,0.5,1.3c-1,2.2-2.3,4.2-3.8,6
					C53.9,121.5,53.7,121.6,53.4,121.6z M13.2,115.9c-0.4,0-0.7-0.2-0.9-0.6c-1-2.2-1.7-4.5-2-6.9c-0.1-0.5,0.3-1.1,0.8-1.1
					c0.5-0.1,1.1,0.3,1.1,0.8c0.3,2.2,0.9,4.3,1.9,6.3c0.2,0.5,0,1.1-0.5,1.3C13.5,115.9,13.3,115.9,13.2,115.9z M59,109.2
					c0,0-0.1,0-0.1,0c-0.5-0.1-0.9-0.6-0.9-1.1c0.1-1.1,0.2-2.1,0.2-3.2c0-1.1-0.1-2.3-0.2-3.4c-0.1-0.5,0.3-1.1,0.8-1.1
					c0.5-0.1,1.1,0.3,1.1,0.8c0.2,1.2,0.3,2.4,0.3,3.6c0,1.2-0.1,2.3-0.2,3.5C59.9,108.9,59.5,109.2,59,109.2z M11.2,102.5
					c0,0-0.1,0-0.1,0c-0.5-0.1-0.9-0.6-0.8-1.1c0.3-2.4,1-4.7,2-6.9c0.2-0.5,0.8-0.7,1.3-0.5c0.5,0.2,0.7,0.8,0.5,1.3
					c-0.9,2-1.5,4.1-1.8,6.3C12.2,102.1,11.7,102.5,11.2,102.5z M57,95.8c-0.4,0-0.7-0.2-0.9-0.6c-0.9-2-2.1-3.9-3.6-5.5
					c-0.4-0.4-0.3-1,0.1-1.4c0.4-0.4,1-0.3,1.4,0.1c1.6,1.8,2.9,3.8,3.9,6c0.2,0.5,0,1.1-0.5,1.3C57.3,95.8,57.1,95.8,57,95.8z
					 M16.9,90.1c-0.2,0-0.5-0.1-0.7-0.2c-0.4-0.4-0.5-1-0.1-1.4c1.6-1.8,3.4-3.4,5.4-4.7c0.5-0.3,1.1-0.2,1.4,0.3
					c0.3,0.5,0.2,1.1-0.3,1.4c-1.8,1.2-3.5,2.6-5,4.3C17.4,90,17.2,90.1,16.9,90.1z M48.1,85.6c-0.2,0-0.4-0.1-0.5-0.2
					c-1.9-1.2-3.9-2.1-6-2.7c-0.5-0.2-0.8-0.7-0.7-1.2c0.2-0.5,0.7-0.8,1.2-0.7c2.3,0.7,4.5,1.7,6.5,3c0.5,0.3,0.6,0.9,0.3,1.4
					C48.7,85.4,48.4,85.6,48.1,85.6z M28.3,82.8c-0.4,0-0.8-0.3-1-0.7c-0.2-0.5,0.1-1.1,0.7-1.2c2.3-0.7,4.7-1,7.1-1c0,0,0,0,0,0
					c0.6,0,1,0.4,1,1c0,0.6-0.4,1-1,1c-2.2,0-4.4,0.3-6.5,0.9C28.5,82.8,28.4,82.8,28.3,82.8z"/>
			</g>
		</g>
		<g>
			<g>
				<g>
					<path class="st0" d="M130,71H76.2c-0.6,0-1-0.4-1-1V25.7c0-0.6,0.4-1,1-1H130c0.6,0,1,0.4,1,1V70C131,70.6,130.5,71,130,71z
						 M77.2,69H129V26.7H77.2V69z"/>
				</g>
				<g>
					<path class="st0" d="M134,26.7H72.1c-0.6,0-1-0.4-1-1V15.4c0-0.6,0.4-1,1-1H134c0.6,0,1,0.4,1,1v10.3
						C135,26.3,134.6,26.7,134,26.7z M73.1,24.7H133v-8.3H73.1V24.7z"/>
				</g>
				<g>
					<path class="st0" d="M103.1,71c-0.6,0-1-0.4-1-1V25.7c0-0.6,0.4-1,1-1s1,0.4,1,1V70C104.1,70.6,103.6,71,103.1,71z"/>
				</g>
			</g>
			<g>
				<g>
					<path class="st0" d="M103.1,16.4h-4.7c-3.1,0-5.7-2.6-5.7-5.7S95.2,5,98.4,5s5.7,2.6,5.7,5.7v4.7
						C104.1,16,103.6,16.4,103.1,16.4z M98.4,7c-2,0-3.7,1.7-3.7,3.7s1.7,3.7,3.7,3.7h3.7v-3.7C102.1,8.7,100.4,7,98.4,7z"/>
				</g>
				<g>
					<path class="st0" d="M107.8,16.4h-4.7c-0.6,0-1-0.4-1-1v-4.7c0-3.1,2.6-5.7,5.7-5.7s5.7,2.6,5.7,5.7S110.9,16.4,107.8,16.4z
						 M104.1,14.4h3.7c2,0,3.7-1.7,3.7-3.7S109.8,7,107.8,7c-2,0-3.7,1.7-3.7,3.7V14.4z"/>
				</g>
			</g>
		</g>
		<g>
			<path class="st0" d="M70,110.5c-0.6,0-1-0.4-1-1s0.4-1,1-1c19.2,0,35.6-14.4,38.1-33.4c0.1-0.5,0.6-0.9,1.1-0.9
				c0.5,0.1,0.9,0.6,0.9,1.1C107.5,95.4,90.2,110.5,70,110.5z"/>
		</g>
		<g>
			<path class="st0" d="M30.7,67.9C30.6,67.9,30.6,67.9,30.7,67.9c-0.6,0-1-0.5-1-1.1C31.3,45.9,49,29.5,70,29.5c0,0,0.1,0,0.1,0
				c0.5,0,1,0.5,1,1c0,0.5-0.4,1-1,1c0,0-0.1,0-0.1,0c-20,0-36.8,15.6-38.4,35.4C31.6,67.5,31.2,67.9,30.7,67.9z"/>
		</g>
		<g>
			<path class="st0" d="M63,37c-0.3,0-0.6-0.1-0.8-0.4c-0.3-0.4-0.3-1.1,0.2-1.4l6-4.7l-6-4.7c-0.4-0.3-0.5-1-0.2-1.4
				c0.3-0.4,1-0.5,1.4-0.2l7,5.5c0.2,0.2,0.4,0.5,0.4,0.8s-0.1,0.6-0.4,0.8l-7,5.5C63.5,36.9,63.3,37,63,37z"/>
		</g>
		<g>
			<path class="st0" d="M77,115.9c-0.2,0-0.4-0.1-0.6-0.2l-7-5.5c-0.2-0.2-0.4-0.5-0.4-0.8s0.1-0.6,0.4-0.8l7-5.5
				c0.4-0.3,1.1-0.3,1.4,0.2c0.3,0.4,0.3,1.1-0.2,1.4l-6,4.7l6,4.7c0.4,0.3,0.5,1,0.2,1.4C77.5,115.8,77.3,115.9,77,115.9z"/>
		</g>
	</g>
	<g>
		<g>
			<path class="st1" d="M23.6,103.5c-0.3,0-0.5-0.1-0.7-0.2c-0.2-0.2-0.3-0.4-0.3-0.6c0-0.2,0.1-0.4,0.3-0.6s0.4-0.2,0.7-0.2H38
				c0.3,0,0.5,0.1,0.6,0.2c0.2,0.2,0.3,0.4,0.3,0.6c0,0.3-0.1,0.5-0.3,0.6c-0.2,0.2-0.4,0.2-0.6,0.2H23.6z M23.6,107.8
				c-0.3,0-0.5-0.1-0.7-0.2s-0.3-0.4-0.3-0.7c0-0.2,0.1-0.4,0.3-0.6s0.4-0.2,0.7-0.2h12.6c0.3,0,0.5,0.1,0.6,0.2s0.3,0.4,0.3,0.6
				c0,0.3-0.1,0.5-0.3,0.7s-0.4,0.2-0.6,0.2H23.6z M35.4,115.3c-1.4,0-2.7-0.3-3.9-0.8c-1.2-0.5-2.3-1.3-3.2-2.2
				c-0.9-1-1.6-2-2.1-3.3c-0.5-1.2-0.8-2.6-0.8-4c0-1.4,0.3-2.7,0.8-4c0.5-1.2,1.2-2.3,2.1-3.3c0.9-0.9,2-1.7,3.2-2.2
				s2.5-0.8,3.9-0.8c1.2,0,2.4,0.2,3.4,0.5c1,0.4,2,0.9,2.9,1.7c0.2,0.1,0.2,0.3,0.3,0.4c0,0.2,0,0.3-0.1,0.5
				c-0.1,0.1-0.2,0.3-0.3,0.3c0,0.1-0.1,0.2-0.3,0.3c-0.1,0.1-0.3,0.1-0.5,0.1c-0.2,0-0.4-0.1-0.5-0.2c-0.7-0.6-1.4-1-2.2-1.3
				s-1.7-0.4-2.8-0.4c-1.1,0-2.2,0.2-3.1,0.7c-1,0.4-1.8,1.1-2.6,1.8c-0.7,0.8-1.3,1.7-1.7,2.7c-0.4,1-0.6,2.1-0.6,3.2
				c0,1.2,0.2,2.3,0.6,3.3c0.4,1,1,1.9,1.7,2.7c0.7,0.8,1.6,1.4,2.6,1.8c1,0.4,2,0.7,3.1,0.7c0.9,0,1.8-0.2,2.7-0.5
				c0.8-0.3,1.6-0.8,2.4-1.3c0.2-0.2,0.4-0.2,0.7-0.2c0.2,0,0.4,0.1,0.6,0.3c0.2,0.2,0.3,0.4,0.3,0.7c0,0.1,0,0.3-0.1,0.4
				c0,0.1-0.1,0.2-0.2,0.3c-0.9,0.8-1.9,1.4-2.9,1.7C37.7,115.1,36.6,115.3,35.4,115.3z"/>
		</g>
	</g>
</g>
</svg>
