<svg xmlns="http://www.w3.org/2000/svg" viewBox="0 0 74 74" x="0px" y="0px"><title>1</title><path d="M37,72a1.014,1.014,0,0,1-.3-.047L9.526,63.308a1,1,0,0,1-.7-.953V41.668a1,1,0,0,1,2,0V61.624L36,69.632V40.856L9.526,32.433a1,1,0,0,1,.606-1.907L37.3,39.171a1,1,0,0,1,.7.954V71a1,1,0,0,1-1,1Z"></path><path d="M59.6,64.811a1,1,0,0,1-.3-1.954L63.17,61.62V41.67a1,1,0,0,1,2,0V62.35a1,1,0,0,1-.7.953L59.9,64.763A1.01,1.01,0,0,1,59.6,64.811Z"></path><path d="M37,72a1,1,0,0,1-1-1V40.12a1,1,0,0,1,.7-.953l27.17-8.64a1,1,0,0,1,.606,1.906L38,40.852v28.78l5.077-1.615a1,1,0,0,1,.606,1.906l-6.38,2.03A1.014,1.014,0,0,1,37,72Z"></path><path d="M50.1,67.831a1,1,0,0,1-.3-1.953l2.78-.89a1,1,0,0,1,.61,1.9l-2.781.89A.981.981,0,0,1,50.1,67.831Z"></path><path d="M43.793,49.152a1,1,0,0,1-.764-.354l-6.793-8.027a1,1,0,0,1,.461-1.6l27.171-8.645a1,1,0,0,1,1.067.307l6.792,8.028a1,1,0,0,1-.461,1.6L44.1,49.105A.987.987,0,0,1,43.793,49.152Zm-5.062-8.529L44.125,47l25.106-7.989-5.392-6.373Z"></path><path d="M30.207,49.152a.987.987,0,0,1-.3-.047L2.734,40.46a1,1,0,0,1-.461-1.6l6.792-8.028a1,1,0,0,1,1.067-.307L37.3,39.171a1,1,0,0,1,.461,1.6L30.971,48.8A1,1,0,0,1,30.207,49.152ZM4.769,39.008,29.875,47l5.394-6.374L10.161,32.635Z"></path><path d="M9.833,32.484A1,1,0,0,1,9.5,30.539l19.643-6.855a1,1,0,1,1,.659,1.889L10.162,32.428A.994.994,0,0,1,9.833,32.484Z"></path><path d="M64.167,32.484a.994.994,0,0,1-.329-.056L44.194,25.573a1,1,0,0,1,.659-1.889L64.5,30.539a1,1,0,0,1-.329,1.945Z"></path><path d="M37,32.8a1,1,0,0,1-.622-.217C35.774,32.1,21.6,20.73,21.6,11.69A9.572,9.572,0,0,1,31.029,2,9.2,9.2,0,0,1,37,4.189,9.2,9.2,0,0,1,42.971,2,9.572,9.572,0,0,1,52.4,11.69c0,9.04-14.172,20.411-14.776,20.891A1,1,0,0,1,37,32.8ZM31.029,4A7.571,7.571,0,0,0,23.6,11.69C23.6,18.783,34.281,28.215,37,30.5c2.718-2.286,13.4-11.724,13.4-18.811A7.571,7.571,0,0,0,42.971,4a7.258,7.258,0,0,0-5.252,2.252,1.028,1.028,0,0,1-1.438,0A7.258,7.258,0,0,0,31.029,4Z"></path></svg>