<?xml version="1.0" encoding="utf-8"?>
<!-- Generator: Adobe Illustrator 26.4.1, SVG Export Plug-In . SVG Version: 6.00 Build 0)  -->
<svg version="1.1" id="Layer_2_00000023268127927470730810000002307082732509743267_"
	 xmlns="http://www.w3.org/2000/svg" xmlns:xlink="http://www.w3.org/1999/xlink" x="0px" y="0px" viewBox="0 0 66.9 55"
	 style="enable-background:new 0 0 66.9 55;" xml:space="preserve">
<style type="text/css">
	.st0{fill-rule:evenodd;clip-rule:evenodd;}
	.st1{display:none;}
	.st2{display:inline;}
	.st3{clip-path:url(#SVGID_00000164473068278598907280000003927916154589464228_);}
</style>
<g id="Layer_1-2">
	<g>
		<path id="bp" class="st0" d="M20.8,22.5c-0.1,2,0.2,4,0.7,5.9c0.1,0.4,0.8,2.3,0.9,2.7c2.7,0.2,4.7,0.2,7.3,0.5
			c1.8,0.2,5.3,0.5,7.1,0.6c-2.1-1.1-3.6-4.1-4.2-6h-1.4c-0.4,0-0.8-0.1-1.1-0.4c-0.3-0.3-0.5-0.7-0.5-1.1s0.2-0.8,0.5-1.1
			s0.7-0.5,1.1-0.5h0.9v-2h-0.9c-0.4,0-0.8-0.1-1.1-0.4c-0.3-0.3-0.5-0.7-0.5-1.1s0.2-0.8,0.5-1.1s0.7-0.5,1.1-0.5h1.5
			c0.6-2.1,1.7-3.7,3.3-5c1.5-1.2,3.4-1.9,5.6-1.9c2.6,0,4.9,0.9,6.6,2.8c0.4,0.4,0.6,0.9,0.6,1.6c0,0.6-0.2,1.1-0.7,1.5
			c-0.4,0.4-1,0.6-1.6,0.6s-1.2-0.2-1.6-0.7c-1-1.1-2.2-1.7-3.5-1.7c-1.8,0-3,0.9-3.8,2.7h4.2c0.4,0,0.8,0.2,1.1,0.5
			s0.5,0.7,0.5,1.1s-0.2,0.8-0.5,1.1S42.2,21,41.8,21h-4.9v2.1h4.9c0.4,0,0.8,0.2,1.1,0.5s0.5,0.7,0.5,1.1s-0.2,0.8-0.5,1.1
			s-0.7,0.4-1.1,0.4h-4.3c0.8,1.9,2.2,2.8,4.1,2.8c1.3,0,2.5-0.6,3.5-1.8c0.4-0.5,0.9-0.7,1.6-0.7c0.6,0,1.1,0.2,1.5,0.6
			s0.6,0.9,0.6,1.5c0,0.5-0.7,1.4-1,1.8c-0.8,0.9-1.7,2-3.4,2.6l2.8,0.8c1.8,0.9,2.2,1.8,2.3,3.5c-0.1,1.6-0.3,2.7-2.2,3.9
			c1.2,0,3.8-1.2,5.1-2.3c1-0.9,2-2.1,3-3c0.5-0.5,0.6-0.7,0.6-0.7l0.6-0.8c0.4-0.5,0.4-0.6,0.6-0.9c1.8-2.9,2.7-6.3,2.8-9.8
			c0.3-10.9-8.2-19.9-19-20.3C30.2,3.1,21.1,11.6,20.8,22.5z M20.3,32.8c-0.9-0.1-1.8,0.1-2.6,0.6c-1.6,0.9-3.2,1.8-4.7,2.7
			c-1.4,0.8-2.7,1.5-4.1,2.3S6.2,40,4.8,40.8l-0.5,0.3c2.1,3.9,4.8,7.4,8.1,10.3c2-0.8,4.4-1.6,7.2-1.7h26.5c3,0,5.1-0.7,6.9-2.2
			c2-1.7,4-3.3,6-5l3.2-2.6c0.8-0.6,1.2-1.3,1.3-2.1c0.1-0.4,0.1-1-0.2-1.5c-0.3-0.4-0.9-0.6-1.3-0.6c-1-0.1-2.7,0.2-3.5,1
			c-0.5,0.4-1.2,0.9-1.7,1.3c-1,1-2.1,1.6-3.2,2.5c-2.6,2.3-4.2,2.6-6.4,3c-1.7,0.3-2.1,0.6-4.3,0.2c-0.4-0.1-3.2-0.5-3.5-0.6
			c-2.2-0.4-3.6-0.5-5.4-1c-2.1-0.5-2.3-1-2.2-2l0.3-0.9c0,0,0.4-0.3,0.7-0.4s0.8,0,0.8,0l1.8,0.2l2,0.3c1.5,0.2,1.8,0.4,3.1,0.4
			l1.7,0.1c1.1,0.1,2.2,0,3.3,0c1.4,0,2.2-1,2.3-2.5c0.1-1.1-1.6-2-2-2.1c-2-0.4-4.1-0.7-6.4-0.9c-3.2-0.4-6.4-0.7-9.7-1
			C26.4,33.3,23.4,33,20.3,32.8z M41.1,1.5C41.1,1.5,40.3,1.5,41.1,1.5c10.9,0.2,21,9.6,20.6,22.3c-0.4,7.2-3.8,11.5-3.8,11.5
			s2.4-1,4-1c1.6,0,2.1,0.7,2.1,0.7s0.9,0.6,0.9,1.8s0.1,2.8-1.3,3.9L61.1,43c-2,1.7-4,3.4-5.9,5.1c-2.4,2.1-4,3.7-7.7,3.7
			l-27.8-0.2c-1.9,0-4.3,0.5-6.8,1.6c-0.4,0.2-0.4,0.2-0.7,0.2c-0.6,0-0.8-0.4-1.2-0.8c-4-3.6-6.6-7.1-9.1-12
			c-0.1-0.1,0.1-0.2,0-0.4l0.5-0.2l2.1-1c1.4-0.8,2.7-1.6,4.1-2.4c1.4-0.8,2.8-1.6,4.1-2.3c1.6-0.9,3.1-1.8,4.7-2.6
			c1.4-1,2.7-0.5,3.4-0.7c0-0.4,0.3,1.3-0.7-1.9s-0.9-6.7-0.8-9C20.5,9.2,31.4,1.3,41.1,1.5z"/>
		<g>
			<g class="st1">
				<g class="st2">
					<rect id="bo" x="-870.6" y="-1166" width="1422.7" height="1628.9"/>
					<g>
						<defs>
							<rect id="SVGID_1_" x="-870.6" y="-1166" width="1422.7" height="1628.9"/>
						</defs>
						<clipPath id="SVGID_00000157272329473293401700000001366262523096041134_">
							<use xlink:href="#SVGID_1_"  style="overflow:visible;"/>
						</clipPath>
						<g style="clip-path:url(#SVGID_00000157272329473293401700000001366262523096041134_);">
							<rect x="-8.8" y="-8.7" width="84.4" height="72.4"/>
						</g>
					</g>
				</g>
			</g>
		</g>
	</g>
</g>
</svg>
