<?xml version="1.0" encoding="UTF-8"?><svg id="Layer_2" xmlns="http://www.w3.org/2000/svg" viewBox="0 0 90 56.5"><g id="Layer_1-2"><g><path d="M40,37.8c-.4,0-.7-.1-1-.4-5.6-4.9-12.5-11.1-12.5-18.2,0-6.2,3.8-8.4,7.4-8.4,2.5,0,4.8,1.9,6.1,3.3,1.3-1.4,3.6-3.3,6.1-3.3,3.6,0,7.4,2.2,7.4,8.4,0,7.2-6.9,13.3-12.5,18.2-.3,.3-.6,.4-1,.4Zm-6.1-24c-2.8,0-4.4,1.9-4.4,5.4,0,5.4,5.6,10.7,10.5,15.1,4.9-4.4,10.5-9.7,10.5-15.1,0-4.7-2.8-5.4-4.4-5.4-1.9,0-4.2,2.6-4.9,3.5-.6,.8-1.9,.8-2.4,0-.7-.9-3-3.5-4.9-3.5Z"/><path d="M88.5,56.5H11.5c-.8,0-1.5-.7-1.5-1.5s.7-1.5,1.5-1.5H87V11.5c0-.8,.7-1.5,1.5-1.5s1.5,.7,1.5,1.5V55c0,.9-.7,1.5-1.5,1.5Z"/><path d="M83.5,51.5H6.5c-.8,0-1.5-.7-1.5-1.5s.7-1.5,1.5-1.5H82V6.5c0-.8,.7-1.5,1.5-1.5s1.5,.7,1.5,1.5V50c0,.9-.7,1.5-1.5,1.5Z"/><path d="M78.5,46.5H1.5c-.8,0-1.5-.7-1.5-1.5V1.5C0,.7,.7,0,1.5,0H78.5c.8,0,1.5,.7,1.5,1.5V45c0,.9-.7,1.5-1.5,1.5ZM3,43.5H77V3.1H3V43.5Z"/><g><path d="M19.5,23.3c0-6.1,2.6-11.5,6.8-15.2H9.5c-.8,0-1.5,.7-1.5,1.5v27.5c0,.8,.7,1.5,1.5,1.5H26.3c-4.2-3.8-6.8-9.2-6.8-15.3Z"/><path d="M70.5,8.1h-16.8c4.2,3.8,6.8,9.2,6.8,15.2s-2.6,11.5-6.8,15.2h16.8c.8,0,1.5-.7,1.5-1.5V9.5c0-.8-.7-1.4-1.5-1.4Z"/></g></g></g></svg>