<?xml version="1.0" encoding="UTF-8"?><svg id="Layer_2" xmlns="http://www.w3.org/2000/svg" xmlns:xlink="http://www.w3.org/1999/xlink" viewBox="0 0 66.91 55"><defs><style>.cls-1{fill:none;}.cls-2{clip-path:url(#clippath);}.cls-3{clip-path:url(#clippath-1);}.cls-4{fill-rule:evenodd;}</style><clipPath id="clippath"><path class="cls-1" d="M20.8,22.5c-.1,2,.2,4,.7,5.9,.1,.4,.2,.7,.3,1.1,2.7,.2,5.3,.4,7.9,.7,1.8,.2,3.7,.4,5.5,.5-1.2-1.2-2-2.6-2.6-4.5h-1.4c-.4,0-.8-.1-1.1-.4-.3-.3-.5-.7-.5-1.1s.2-.8,.5-1.1,.7-.5,1.1-.5h.9v-2h-.9c-.4,0-.8-.1-1.1-.4-.3-.3-.5-.7-.5-1.1s.2-.8,.5-1.1,.7-.5,1.1-.5h1.5c.6-2.1,1.7-3.7,3.3-5,1.5-1.2,3.4-1.9,5.6-1.9,2.6,0,4.9,.9,6.6,2.8,.4,.4,.6,.9,.6,1.6,0,.6-.2,1.1-.7,1.5-.4,.4-1,.6-1.6,.6s-1.2-.2-1.6-.7c-1-1.1-2.2-1.7-3.5-1.7-1.8,0-3,.9-3.8,2.7h4.2c.4,0,.8,.2,1.1,.5s.5,.7,.5,1.1-.2,.8-.5,1.1-.7,.4-1.1,.4h-4.9v2.1h4.9c.4,0,.8,.2,1.1,.5s.5,.7,.5,1.1-.2,.8-.5,1.1-.7,.4-1.1,.4h-4.3c.8,1.9,2.2,2.8,4.1,2.8,1.3,0,2.5-.6,3.5-1.8,.4-.5,.9-.7,1.6-.7,.6,0,1.1,.2,1.5,.6,.4,.4,.6,.9,.6,1.5,0,.5-.2,.9-.5,1.3-.8,.9-1.6,1.7-2.5,2.2h.3c2.8,.6,4.5,2.6,4.3,5.2-.1,1.6-.7,3-1.7,3.9,1.1-.7,2.4-1.8,3.7-2.9,1-.9,2-1.9,3-2.8,.5-.5,.9-.9,1.4-1.3h0c0-.3,.1-.5,.3-.8,1.8-2.9,2.8-6.2,2.9-9.7,.3-10.9-8.2-19.9-19-20.3-10.8-.3-19.9,8.2-20.2,19.1Zm-.5,10.3c-.9-.1-1.8,.1-2.6,.6-1.6,.9-3.2,1.8-4.7,2.7-1.4,.8-2.7,1.5-4.1,2.3s-2.7,1.6-4.1,2.4l-.5,.3c2.1,3.9,4.8,7.4,8.1,10.3,2-.8,4.4-1.6,7.2-1.7h26.5c3,0,5.1-.7,6.9-2.2,2-1.7,4-3.3,6-5l3.2-2.6c.8-.6,1.2-1.3,1.3-2.1,.1-.4,.1-1-.2-1.5-.3-.4-.9-.6-1.3-.6-1-.1-1.8,.2-2.6,1-.5,.4-.9,.9-1.4,1.3-1,1-2.1,2-3.2,2.9-2.6,2.3-4.8,4.1-7,4.5-1.7,.3-4.2-.1-6.9-.5-.4-.1-.7-.1-1-.2-2.2-.4-4.4-.9-6.2-1.4-2.1-.5-2.4-1.7-2.2-3.4l.1-.5,.9-1.3,.8,.1h.7l2.4,.3c1.5,.2,2.9,.3,4.4,.5l.8,.1c1.1,.1,2.1,.2,3.2,.2,1.4,0,2.3-.9,2.4-2.4,.1-1.1-1.1-1.5-1.5-1.6-2-.4-4.1-.7-6.4-.9-3.2-.4-6.4-.7-9.7-1-3.2-.1-6.2-.4-9.3-.6ZM40.6,0h.5c12.8,.4,22.8,11.1,22.4,23.8-.1,2.9-.7,5.8-1.9,8.4h.7c1.5,.2,2.8,.9,3.7,2,.8,1.1,1.1,2.6,.8,4.2-.3,1.6-1.1,3-2.5,4.1l-3.2,2.7c-2,1.7-4,3.3-5.9,5-2.4,2.1-5.4,3-9.1,3H19.7c-1.9,0-3.9,.5-6.4,1.6-.4,.2-.8,.2-1.1,.2-.6,0-1.1-.2-1.5-.6-4-3.6-7.3-7.8-9.8-12.7-.1-.1-.1-.3-.2-.5l-.7-1.6,3.1-1.9c1.4-.8,2.7-1.6,4.1-2.4,1.4-.8,2.8-1.6,4.1-2.3,1.6-.9,3.1-1.8,4.7-2.6,.7-.4,1.5-.7,2.2-.9q0-.1-.1-.2c-.6-2.2-.9-4.6-.8-6.9C17.7,9.8,28.1-.1,40.6,0Z"/></clipPath><clipPath id="clippath-1"><rect class="cls-1" x="-870.6" y="-1166" width="1422.7" height="1628.9"/></clipPath></defs><g id="Layer_1-2"><g><path id="bp" class="cls-4" d="M20.8,22.5c-.1,2,.2,4,.7,5.9,.1,.4,.2,.7,.3,1.1,2.7,.2,5.3,.4,7.9,.7,1.8,.2,3.7,.4,5.5,.5-1.2-1.2-2-2.6-2.6-4.5h-1.4c-.4,0-.8-.1-1.1-.4-.3-.3-.5-.7-.5-1.1s.2-.8,.5-1.1,.7-.5,1.1-.5h.9v-2h-.9c-.4,0-.8-.1-1.1-.4-.3-.3-.5-.7-.5-1.1s.2-.8,.5-1.1,.7-.5,1.1-.5h1.5c.6-2.1,1.7-3.7,3.3-5,1.5-1.2,3.4-1.9,5.6-1.9,2.6,0,4.9,.9,6.6,2.8,.4,.4,.6,.9,.6,1.6,0,.6-.2,1.1-.7,1.5-.4,.4-1,.6-1.6,.6s-1.2-.2-1.6-.7c-1-1.1-2.2-1.7-3.5-1.7-1.8,0-3,.9-3.8,2.7h4.2c.4,0,.8,.2,1.1,.5s.5,.7,.5,1.1-.2,.8-.5,1.1-.7,.4-1.1,.4h-4.9v2.1h4.9c.4,0,.8,.2,1.1,.5s.5,.7,.5,1.1-.2,.8-.5,1.1-.7,.4-1.1,.4h-4.3c.8,1.9,2.2,2.8,4.1,2.8,1.3,0,2.5-.6,3.5-1.8,.4-.5,.9-.7,1.6-.7,.6,0,1.1,.2,1.5,.6,.4,.4,.6,.9,.6,1.5,0,.5-.2,.9-.5,1.3-.8,.9-1.6,1.7-2.5,2.2h.3c2.8,.6,4.5,2.6,4.3,5.2-.1,1.6-.7,3-1.7,3.9,1.1-.7,2.4-1.8,3.7-2.9,1-.9,2-1.9,3-2.8,.5-.5,.9-.9,1.4-1.3h0c0-.3,.1-.5,.3-.8,1.8-2.9,2.8-6.2,2.9-9.7,.3-10.9-8.2-19.9-19-20.3-10.8-.3-19.9,8.2-20.2,19.1Zm-.5,10.3c-.9-.1-1.8,.1-2.6,.6-1.6,.9-3.2,1.8-4.7,2.7-1.4,.8-2.7,1.5-4.1,2.3s-2.7,1.6-4.1,2.4l-.5,.3c2.1,3.9,4.8,7.4,8.1,10.3,2-.8,4.4-1.6,7.2-1.7h26.5c3,0,5.1-.7,6.9-2.2,2-1.7,4-3.3,6-5l3.2-2.6c.8-.6,1.2-1.3,1.3-2.1,.1-.4,.1-1-.2-1.5-.3-.4-.9-.6-1.3-.6-1-.1-1.8,.2-2.6,1-.5,.4-.9,.9-1.4,1.3-1,1-2.1,2-3.2,2.9-2.6,2.3-4.8,4.1-7,4.5-1.7,.3-4.2-.1-6.9-.5-.4-.1-.7-.1-1-.2-2.2-.4-4.4-.9-6.2-1.4-2.1-.5-2.4-1.7-2.2-3.4l.1-.5,.9-1.3,.8,.1h.7l2.4,.3c1.5,.2,2.9,.3,4.4,.5l.8,.1c1.1,.1,2.1,.2,3.2,.2,1.4,0,2.3-.9,2.4-2.4,.1-1.1-1.1-1.5-1.5-1.6-2-.4-4.1-.7-6.4-.9-3.2-.4-6.4-.7-9.7-1-3.2-.1-6.2-.4-9.3-.6ZM40.6,0h.5c12.8,.4,22.8,11.1,22.4,23.8-.1,2.9-.7,5.8-1.9,8.4h.7c1.5,.2,2.8,.9,3.7,2,.8,1.1,1.1,2.6,.8,4.2-.3,1.6-1.1,3-2.5,4.1l-3.2,2.7c-2,1.7-4,3.3-5.9,5-2.4,2.1-5.4,3-9.1,3H19.7c-1.9,0-3.9,.5-6.4,1.6-.4,.2-.8,.2-1.1,.2-.6,0-1.1-.2-1.5-.6-4-3.6-7.3-7.8-9.8-12.7-.1-.1-.1-.3-.2-.5l-.7-1.6,3.1-1.9c1.4-.8,2.7-1.6,4.1-2.4,1.4-.8,2.8-1.6,4.1-2.3,1.6-.9,3.1-1.8,4.7-2.6,.7-.4,1.5-.7,2.2-.9q0-.1-.1-.2c-.6-2.2-.9-4.6-.8-6.9C17.7,9.8,28.1-.1,40.6,0Z"/><g class="cls-2"><g><rect id="bo" x="-870.6" y="-1166" width="1422.7" height="1628.9"/><g class="cls-3"><rect x="-8.8" y="-8.7" width="84.4" height="72.4"/></g></g></g></g></g></svg>