<?xml version="1.0" encoding="UTF-8"?><svg id="Layer_2" xmlns="http://www.w3.org/2000/svg" viewBox="0 0 97.71 56.37"><g id="Layer_1-2"><path color-rendering="auto" d="M1.53,0C.7-.01,.01,.65,0,1.48c-.01,.83,.65,1.51,1.48,1.52,.02,0,.03,0,.05,0h1.61c.83,.01,1.51-.65,1.52-1.48C4.67,.7,4.01,.01,3.19,0,3.17,0,3.15,0,3.14,0H1.53ZM8.29,0c-.83-.01-1.51,.65-1.53,1.47-.01,.83,.65,1.51,1.47,1.53,.02,0,.03,0,.05,0l45.3,.05c.83,.01,1.51-.65,1.53-1.47,.01-.83-.65-1.51-1.47-1.53-.02,0-.03,0-.05,0L8.29,0Zm55.72,.05c-.83-.01-1.51,.65-1.52,1.48-.01,.83,.65,1.51,1.48,1.52,.02,0,.03,0,.05,0h30.71V53.37H33.85c-.83-.01-1.51,.65-1.52,1.48-.01,.83,.65,1.51,1.48,1.52,.02,0,.03,0,.05,0h62.37c.83,0,1.5-.67,1.5-1.5V1.55c0-.83-.67-1.5-1.5-1.5h-32.21Zm-6.13,10.88c-.83-.01-1.51,.65-1.52,1.48s.65,1.51,1.48,1.52c.02,0,.03,0,.05,0h20.44c.59,2.87,2.87,5.14,5.73,5.73v17.15h0c-2.87,.59-5.14,2.87-5.73,5.73l-38.12-.02c-.83-.01-1.51,.65-1.52,1.48-.01,.83,.65,1.51,1.48,1.52,.02,0,.03,0,.05,0l39.47,.02h.03s.08,0,.12,0h0s.1-.01,.15-.02h0c.72-.13,1.24-.76,1.23-1.5,0-2.37,1.86-4.26,4.21-4.34,.36,.03,.71-.06,1-.27h0c.51-.34,.76-.96,.63-1.56V18.62c.12-.56-.1-1.14-.55-1.5h-.01c-.27-.23-.61-.34-.96-.34-.05,0-.09,0-.13,0-2.34-.09-4.19-1.97-4.19-4.34,.01-.75-.54-1.39-1.28-1.5h-.02s-.06-.01-.1-.01c-.04,0-.08,0-.12,0h-21.8ZM1.52,17.79c-.83-.01-1.51,.65-1.52,1.48-.01,.83,.65,1.51,1.48,1.52,.02,0,.03,0,.05,0h1.61c.83,.01,1.51-.65,1.52-1.48s-.65-1.51-1.48-1.52c-.02,0-.03,0-.05,0H1.52Zm6.76,0c-.83-.01-1.51,.65-1.52,1.48s.65,1.51,1.48,1.52c.02,0,.03,0,.05,0H43.78c.83,.01,1.51-.65,1.52-1.48,.01-.83-.65-1.51-1.48-1.52-.02,0-.03,0-.05,0H8.28Zm45.04,1.44c-.83,.02-1.48,.71-1.46,1.54,.01,.51,.28,.98,.72,1.24,2.07,1.3,3.45,3.59,3.45,6.22,0,4.07-3.27,7.34-7.34,7.34-1.26,0-2.44-.32-3.48-.87-.72-.41-1.64-.17-2.05,.55-.41,.72-.17,1.64,.55,2.05,.03,.01,.05,.03,.08,.04,1.46,.79,3.13,1.23,4.9,1.23,5.69,0,10.34-4.65,10.34-10.34,0-3.68-1.94-6.94-4.85-8.76-.25-.16-.55-.25-.85-.24h0ZM1.52,35.58c-.83-.01-1.51,.65-1.52,1.48-.01,.83,.65,1.51,1.48,1.52,.02,0,.03,0,.05,0h1.61c.83,.01,1.51-.65,1.52-1.48s-.65-1.51-1.48-1.52c-.02,0-.03,0-.05,0H1.52Zm6.76,0c-.83-.01-1.51,.65-1.52,1.48s.65,1.51,1.48,1.52c.02,0,.03,0,.05,0h25.28c.83,.01,1.51-.65,1.52-1.48,.01-.83-.65-1.51-1.48-1.52-.02,0-.03,0-.05,0H8.28ZM1.52,53.37c-.83-.01-1.51,.65-1.52,1.48-.01,.83,.65,1.51,1.48,1.52,.02,0,.03,0,.05,0h1.61c.83,.01,1.51-.65,1.52-1.48,.01-.83-.65-1.51-1.48-1.52-.02,0-.03,0-.05,0H1.52Zm6.76,0c-.83-.01-1.51,.65-1.52,1.48-.01,.83,.65,1.51,1.48,1.52,.02,0,.03,0,.05,0h15.29c.83,.01,1.51-.65,1.52-1.48,.01-.83-.65-1.51-1.48-1.52-.02,0-.03,0-.05,0H8.28Z" image-rendering="auto" shape-rendering="auto"/></g></svg>