<?xml version="1.0" encoding="UTF-8"?><svg id="Layer_2" xmlns="http://www.w3.org/2000/svg" viewBox="0 0 84.4 75.1"><defs><style>.cls-1{fill:#39444e;}</style></defs><g id="Layer_1-2"><path class="cls-1" d="M75,0H9.4C4.2,0,0,4.2,0,9.4v56.3c0,5.2,4.2,9.4,9.4,9.4H75c5.2,0,9.4-4.2,9.4-9.4V9.4c.1-5.2-4.2-9.4-9.4-9.4ZM32.4,45.5v-15.8c0-.2,0-.5-.1-.7h20.2c-.1,.2-.1,.5-.1,.7v15.8h-20Zm20,6.3v17.1h-20v-17.1h20ZM6.3,29H26.2c-.1,.2-.1,.5-.1,.7v15.8H6.3V29Zm52.3,0h19.6v16.6h-19.5v-15.9c0-.3,0-.5-.1-.7ZM9.4,6.3H75c1.7,0,3.1,1.4,3.1,3.1v13.2H6.3V9.4c0-1.7,1.4-3.1,3.1-3.1Zm-3.1,59.5v-14H26.1v17.1H9.4c-1.7,0-3.1-1.4-3.1-3.1Zm68.7,3.1h-16.3v-17.1h19.5v13.9c0,1.8-1.4,3.2-3.2,3.2Z"/></g></svg>