<?xml version="1.0" encoding="UTF-8"?><svg id="Layer_2" xmlns="http://www.w3.org/2000/svg" viewBox="0 0 298.58 448.4"><g id="Layer_1-2"><g><path d="M283.27,189.5c-16.08-5.85-42.19,1.28-61.36,30.89-1.26,1.95-2.69,3.96-4.19,6.09-.58,.81-1.21,1.79-1.8,2.64l-.87-145.58c-.05-9.04-3.61-17.52-10.04-23.85-6.42-6.36-14.72-9.72-23.96-9.77-7.26,.05-13.94,2.44-19.43,6.39v-23.83c0-17.9-14.56-32.46-32.46-32.46s-32.45,14.56-32.45,32.46v16.49c-5.21-3.57-11.5-5.68-18.29-5.68-17.9,0-32.46,14.56-32.46,32.46v23.31c-4.62-3.14-10.05-5.03-15.9-5.03C13.48,94.01,0,108.57,0,126.6l3.02,164.46c-1.32,60.28,27.35,117.8,39.59,142.36l2.68,5.41c2.87,5.9,8.81,9.56,15.49,9.56H192.07c7,0,13.25-4.1,15.91-10.45,4.42-10.58,15.72-30.77,15.85-30.99,15.12-27.15,34.48-77.34,39.38-111.06,1.52-10.51,9.49-25.52,17.21-40.03,8.48-15.98,16.51-31.08,18-43.2,1.27-10.25-4.67-19.37-15.15-23.17Zm-15.36,59.73c-8.27,15.58-16.83,31.7-18.72,44.63-4.51,31.13-23.16,80.05-37.73,106.2-.48,.85-11.81,21.1-16.55,32.42-.43,1.04-1.57,1.73-2.84,1.73H60.78c-.74,0-2.07-.21-2.76-1.61l-2.72-5.5c-11.79-23.62-39.36-78.96-38.11-136.01l-3.02-164.63c0-10.08,7.13-18.28,15.89-18.28s15.9,8.2,15.9,18.28v100.42c0,3.91,3.17,7.09,7.08,7.09s7.08-3.18,7.08-7.09V75.73c0-10.08,8.21-18.28,18.3-18.28s18.29,8.2,18.29,18.28V204.16c0,3.91,3.17,7.09,7.08,7.09s7.08-3.18,7.08-7.09V32.46c0-10.08,8.21-18.28,18.29-18.28s18.3,8.2,18.3,18.28V204.16c0,3.91,3.17,7.09,7.08,7.09s7.08-3.18,7.08-7.09v-9.6c.4-.89,.65-1.87,.64-2.91l-.64-107.82c-.03-5.26,1.98-10.19,5.67-13.92,3.71-3.75,8.78-5.14,13.96-5.83,5.2,0,10.11,2.01,13.81,5.65,3.73,3.68,5.79,8.61,5.83,13.85l1.03,172.43c.02,3.91,3.19,7.06,7.08,7.06h.04c3.91-.04,7.06-3.22,7.04-7.12v-.6c.79-.65,1.48-1.43,1.95-2.43,3.42-7.25,7.57-13.09,11.24-18.26,1.63-2.3,3.18-4.46,4.55-6.57,15.97-24.68,35.45-28.67,44.62-25.28,2.48,.9,6.55,3.15,5.93,8.13-1.18,9.51-8.94,24.14-16.46,38.29Z"/><path d="M159.87,264.21c-10.55-.71-20.95,3.03-29.09,10.36l-8.8,7.91-8.8-7.91c-8.17-7.33-18.85-11.22-29.09-10.34-8.48,.62-16.16,3.87-22.2,9.41-8,7.32-12.11,17.64-11.91,29.85,.57,35.97,61.04,79.31,67.94,84.13,.12,.09,.28,.05,.41,.13,1.1,.68,2.31,1.12,3.59,1.13,.02,0,.04,.02,.05,.02h.02s.04-.02,.05-.02c1.27-.01,2.48-.45,3.58-1.13,.13-.08,.29-.04,.42-.13,6.89-4.83,67.37-48.16,67.94-84.11,.2-12.23-3.92-22.55-11.92-29.87-6.04-5.53-13.71-8.79-22.2-9.43Zm-37.89,108.85c-19.15-14.16-57.48-47.15-57.84-69.8-.13-8.28,2.26-14.54,7.32-19.18,3.68-3.36,8.4-5.34,13.67-5.72,6.55-.61,13.27,1.99,18.57,6.76l13.54,12.17c.28,.25,.62,.35,.92,.54,.39,.26,.76,.52,1.18,.69,.43,.17,.85,.24,1.3,.32,.45,.09,.88,.19,1.34,.19s.88-.1,1.34-.19c.44-.08,.87-.15,1.3-.32,.43-.17,.79-.44,1.18-.69,.3-.2,.65-.29,.92-.54l13.54-12.19c5.3-4.77,12.01-7.25,18.57-6.76,5.27,.4,10,2.39,13.67,5.74,5.06,4.64,7.45,10.91,7.32,19.2-.36,22.63-38.69,55.62-57.84,69.78Z"/></g></g></svg>