<?xml version="1.0" encoding="UTF-8"?><svg id="Layer_2" xmlns="http://www.w3.org/2000/svg" viewBox="0 0 480 420"><g id="Layer_1-2"><g><path d="M475.35,168.05l-58.51-37.04L245.24,2.01c-3.56-2.68-8.46-2.68-12.02,0l-93.22,70.08V30c0-5.52-4.48-10-10-10h-60c-5.52,0-10,4.48-10,10v102.07L4.55,168.12c-4.63,3.01-5.94,9.2-2.93,13.83,3,4.62,9.19,5.95,13.83,2.93l41.86-27.21v252.32c0,5.52,4.48,10,10,10h122.69c5.52,0,10-4.48,10-10V230h80v180c0,5.52,4.48,10,10,10h121.15c5.52,0,10-4.48,10-10V157.42l43.5,27.53c4.66,2.95,10.84,1.57,13.8-3.1,2.95-4.67,1.57-10.85-3.1-13.8ZM120,40v47.13l-40,30.07V40h40ZM401.15,400h-101.15V220c0-5.52-4.48-10-10-10h-100c-5.52,0-10,4.48-10,10v180H77.31V146.81c1.13-1.21,1.96-2.7,2.38-4.35L239.23,22.51l161.92,121.73v255.76Z"/><path d="M200,130c0,22.06,17.94,40,40,40s40-17.94,40-40-17.94-40-40-40-40,17.94-40,40Zm40-20c11.03,0,20,8.97,20,20s-8.97,20-20,20-20-8.97-20-20,8.97-20,20-20Z"/></g></g></svg>