<?xml version="1.0" encoding="UTF-8"?><svg id="Layer_2" xmlns="http://www.w3.org/2000/svg" viewBox="0 0 88 87.65"><g id="Layer_1-2"><g><path d="M88,40.98c-.01-8.82-6.26-16.41-14.92-18.11V0H6.64C2.98,0,0,2.97,0,6.63v13.36H10.32v61.33H63.75v6.33h11.51v-29.13c7.59-2.48,12.73-9.55,12.74-17.54ZM10.27,16.98H3V6.63c0-2,1.63-3.62,3.63-3.63h0c2,.01,3.61,1.63,3.62,3.63v10.36h.02Zm3.05,61.33V18.5h-.05V6.63c0-1.29-.38-2.55-1.09-3.63h57.9V22.55h-.54c-4.31,0-8.48,1.51-11.78,4.27H22v3H54.9c-2.09,2.71-3.38,5.96-3.72,9.37H22v3h29.14c.5,7.49,5.48,13.94,12.61,16.31v19.82H13.32Zm58.94,6.33h-5.51v-25.44c1.82,.3,3.69,.3,5.51,0v25.43h0Zm-2.72-28.2c-8.54,0-15.46-6.92-15.46-15.46s6.92-15.46,15.46-15.46,15.46,6.92,15.46,15.46h0c-.01,8.53-6.93,15.45-15.46,15.46Z"/><path d="M69.54,26.65c-7.91,0-14.33,6.42-14.33,14.33s6.42,14.33,14.33,14.33,14.33-6.42,14.33-14.33c0-7.91-6.42-14.32-14.33-14.33Zm0,25.66c-6.26,0-11.33-5.07-11.33-11.33,0-6.26,5.07-11.33,11.33-11.33s11.33,5.07,11.33,11.33c0,6.26-5.07,11.32-11.33,11.33Z"/><polygon points="54.37 59.57 54.37 67.89 49.71 67.89 49.71 54.71 46.71 54.71 46.71 67.89 42.04 67.89 42.04 63.07 39.04 63.07 39.04 67.89 34.38 67.89 34.38 59.08 31.38 59.08 31.38 67.89 26.71 67.89 26.71 61.94 23.71 61.94 23.71 70.89 57.37 70.89 57.37 59.57 54.37 59.57"/></g></g></svg>