<?xml version="1.0" encoding="UTF-8"?><svg id="Layer_2" xmlns="http://www.w3.org/2000/svg" viewBox="0 0 57.58 57.57"><g id="Layer_1-2"><g><path d="M28.79,11.23c3.1,0,5.61-2.52,5.61-5.61S31.88,0,28.79,0s-5.61,2.52-5.61,5.62,2.52,5.61,5.61,5.61Zm0-8.69c1.69,0,3.07,1.38,3.07,3.07s-1.38,3.07-3.07,3.07-3.07-1.38-3.07-3.07,1.38-3.07,3.07-3.07Z"/><path d="M36.81,11.79H20.76c-1.69,0-3.08,1.38-3.08,3.08v20.54h2.54V14.87c0-.29,.24-.53,.53-.53h16.05c.29,0,.53,.24,.53,.53v20.54h2.54V14.87c0-1.7-1.38-3.08-3.07-3.08Z"/><path d="M10.34,2.6c-2.91,0-5.28,2.37-5.28,5.28s2.37,5.28,5.28,5.28,5.28-2.37,5.28-5.28-2.37-5.28-5.28-5.28Zm0,8.01c-1.51,0-2.73-1.23-2.73-2.73s1.23-2.74,2.73-2.74,2.73,1.23,2.73,2.74-1.23,2.73-2.73,2.73Z"/><path d="M0,17.68v10.04H2.54v-10.04c0-.22,.17-.39,.39-.39H15.19v-2.54H2.94c-1.62,0-2.94,1.32-2.94,2.94Z"/><path d="M47.24,13.15c2.91,0,5.28-2.37,5.28-5.28s-2.37-5.28-5.28-5.28-5.28,2.37-5.28,5.28,2.37,5.28,5.28,5.28Zm0-8.01c1.51,0,2.73,1.23,2.73,2.74s-1.23,2.73-2.73,2.73-2.73-1.23-2.73-2.73,1.23-2.74,2.73-2.74Z"/><path d="M54.64,14.75h-12.26v2.54h12.26c.22,0,.39,.18,.39,.39v10.04h2.54v-10.04c0-1.62-1.32-2.94-2.94-2.94Z"/><path d="M31.61,54.5c0,.29-.24,.53-.53,.53h-1.02v-21.52h-2.54v21.52h-1.02c-.29,0-.53-.24-.53-.6l-1.27-25.64-2.54,.13,1.27,25.57c0,1.69,1.38,3.08,3.07,3.08h4.58c1.69,0,3.07-1.38,3.07-3.01l1.27-25.64-2.54-.13-1.27,25.7Z"/></g></g></svg>