<?xml version="1.0" encoding="UTF-8"?><svg id="Layer_2" xmlns="http://www.w3.org/2000/svg" viewBox="0 0 47.85 56.65"><g id="Layer_1-2"><g><path d="M34,28.65h-5.72l5.53-9,2.6-4.24c.29-.47,.14-1.08-.33-1.37l-4.24-2.6-6.84-4.24h0l-4.27-2.55c-.21-.15-.47-.21-.73-.17-.26,.06-.48,.22-.62,.45l-2.6,4.24L7.88,23.65h-3.4c-2.47,0-4.47,2.01-4.48,4.48v27.52c0,.55,.45,1,1,1H34c.55,0,1-.45,1-1V29.65c0-.55-.45-1-1-1Zm-1.36-10.95l-.09-.05-.17-.16-.27-.31-.11-.21c-.08-.12-.14-.24-.21-.36l-.09-.19c-.08-.17-.14-.35-.19-.54h0c-.05-.2-.08-.4-.09-.61,0-.07,0-.13,0-.2,0-.14,0-.29,0-.43,0-.07,0-.15,0-.22,.02-.14,.05-.27,.1-.4,.02-.08,.04-.15,.07-.22v-.12l2.52,1.55-1.47,2.47Zm-2.83-4.78c-.06,.13-.11,.26-.16,.4s-.11,.4-.15,.6c-.03,.13-.06,.26-.07,.39-.01,.22-.01,.45,0,.67v.34c.01,.31,.06,.62,.13,.93,0,.02,0,.04,0,.06,.07,.32,.18,.64,.32,.94,0,.1,.1,.19,.15,.29s.21,.4,.34,.59c.07,.11,.15,.21,.24,.31,.13,.16,.27,.32,.42,.47l.31,.28c.09,.09,.18,.17,.27,.24l-5.68,9.22h-2.46l.07-.09c.21-.24,.4-.5,.57-.78,.11-.17,.2-.34,.28-.52l.07-.12c.06-.13,.1-.26,.15-.39s.08-.19,.11-.29,0-.14,.05-.21c.32-1.08,.32-2.23,0-3.31-.07-.23-.16-.45-.26-.67-.47-1.14-1.3-2.1-2.36-2.73-2.83-1.73-6.52-.83-8.25,2h0c-.13,.22-.26,.45-.39,.72-.13,.32-.23,.66-.31,1,0,.1,0,.2-.06,.3-.04,.22-.07,.45-.09,.68v1.32c.05,.31,.12,.63,.21,.93h0c.1,.3,.23,.6,.37,.89l.15,.26c.11,.2,.23,.39,.36,.57l.21,.27,.16,.21H7.16l.1-.16L17.94,11.07l.1,.05c.23,.1,.47,.19,.71,.27h.12c.28,.08,.57,.13,.86,.17h1.17c.24-.02,.48-.06,.72-.11h.12c.27-.07,.54-.16,.8-.27l.2-.09c.2-.09,.39-.2,.57-.31l.21-.13c.23-.15,.44-.32,.64-.51h0c.21-.2,.4-.42,.58-.65l.06-.07,5.16,3.16c-.06,.11-.11,.22-.15,.34Zm-12.9,15.14c-1.71-1.03-2.39-3.17-1.6-5,.09-.18,.18-.35,.28-.52,.55-.91,1.45-1.55,2.48-1.8,.3-.07,.62-.1,.93-.09,.74,0,1.46,.21,2.09,.6,.71,.42,1.26,1.05,1.57,1.81,.06,.15,.12,.3,.17,.45,.63,2.12-.58,4.34-2.7,4.97-1.08,.32-2.26,.17-3.22-.42Zm3.63-21.24l2.51,1.55-.07,.09-.16,.17c-.1,.1-.2,.19-.31,.27l-.19,.14c-.12,.08-.24,.15-.37,.21l-.17,.09c-.38,.17-.79,.27-1.21,.29h-.17c-.15,0-.31,0-.46,0h-.2c-.14-.03-.28-.06-.42-.11l-.21-.07-.11-.1,1.54-2.53ZM2,28.13c0-1.37,1.11-2.48,2.48-2.48h2.18l-1.84,3H2v-.52Zm0,26.52V30.65h31v7h-7.25c-2.62,0-4.75,2.13-4.75,4.75h0v.5c0,2.62,2.13,4.75,4.75,4.75h7.25v7H2Zm31-9h-7.25c-1.52,0-2.75-1.23-2.75-2.75v-.5c0-1.52,1.23-2.75,2.75-2.75h7.25v6Z"/><rect x="6.79" y="5.65" width="14.42" height="2" transform="translate(.7 14.61) rotate(-56.31)"/><rect x="30.59" y="4.15" width="10.82" height="2" transform="translate(11.75 32.25) rotate(-56.31)"/><rect x="31.38" y="14.15" width="20.25" height="2" transform="translate(6.24 41.76) rotate(-57.09)"/><rect x="25.41" y="2.02" width="5.83" height="2" transform="translate(11.28 25.84) rotate(-59.33)"/><circle cx="28" cy="42.65" r="2"/></g></g></svg>