<?xml version="1.0" encoding="UTF-8"?><svg xmlns="http://www.w3.org/2000/svg" viewBox="0 0 95.04 95.14"><defs><style>.d{fill:none;stroke:#000;stroke-miterlimit:10;stroke-width:3px;}</style></defs><g id="a"/><g id="b"><g id="c"><g><path d="M29.77,45.52v-4.75h21.73v4.75H29.77Zm0,7.6v-4.75h21.73v4.75H29.77Zm19.46,10.77c-3.21,0-5.99-.72-8.33-2.16-2.34-1.44-4.16-3.44-5.45-5.99-1.3-2.55-1.98-5.49-2.06-8.83,.08-3.41,.76-6.39,2.06-8.93,1.3-2.54,3.12-4.52,5.45-5.93,2.34-1.41,5.11-2.12,8.33-2.12,1.61,0,3.16,.2,4.65,.61s2.86,1.02,4.13,1.83l-3.26,5.07c-.77-.59-1.63-1.03-2.59-1.32s-1.94-.44-2.93-.44c-2.08,0-3.81,.47-5.17,1.41s-2.39,2.26-3.08,3.95c-.69,1.69-1.04,3.64-1.08,5.86,.03,2.25,.4,4.22,1.1,5.91,.7,1.69,1.74,3,3.11,3.93,1.37,.93,3.08,1.38,5.11,1.35,2.1,.05,3.95-.53,5.57-1.72l3.21,5.02c-1.28,.83-2.67,1.45-4.17,1.87-1.5,.42-3.04,.62-4.61,.62Z"/><circle class="d" cx="47.52" cy="47.62" r="26"/><g><path d="M90.59,.45c-.6-.6-1.5-.6-2.1,0l-11.4,11.4-3.2-3.1c-1.5-1.5-4.1-.6-4.4,1.5l-1.8,14.3c-.2,1.7,1.2,3.1,2.9,2.9l14.3-1.9c2.1-.3,3-2.9,1.5-4.4l-3.2-3.2,11.4-11.3c.6-.6,.6-1.5,0-2.1L90.59,.45Z"/><path d="M4.35,94.69c.6,.6,1.5,.6,2.1,0l11.4-11.4,3.1,3.1c1.5,1.5,4.1,.6,4.4-1.5l1.9-14.2c.2-1.7-1.2-3.1-2.9-2.9l-14.3,1.8c-2.1,.3-3,2.9-1.5,4.4l3.2,3.2L.45,88.49c-.6,.6-.6,1.5,0,2.1l3.9,4.1Z"/><path d="M73.99,86.39l3.2-3.2,11.3,11.4c.6,.6,1.5,.6,2.1,0l4-4c.6-.6,.6-1.5,0-2.1l-11.3-11.4,3.2-3.1c1.5-1.5,.6-4.1-1.5-4.4l-14.3-1.8c-1.7-.2-3.1,1.2-2.9,2.9l1.8,14.3c.3,2,2.9,2.9,4.4,1.4Z"/><path d="M20.95,8.65l-3.1,3.2L6.55,.55C5.95-.05,5.05-.05,4.45,.55L.45,4.55c-.6,.6-.6,1.5,0,2.1l11.2,11.3-3.2,3.1c-1.5,1.5-.6,4.1,1.5,4.4l14.3,1.9c1.7,.2,3.1-1.2,2.9-2.9l-1.8-14.3c-.3-2.1-2.9-3-4.4-1.5Z"/></g></g></g></g></svg>