<?xml version="1.0" encoding="utf-8"?>
<!-- Generator: Adobe Illustrator 26.3.1, SVG Export Plug-In . SVG Version: 6.00 Build 0)  -->
<svg version="1.1" id="Layer_1" xmlns="http://www.w3.org/2000/svg" xmlns:xlink="http://www.w3.org/1999/xlink" x="0px" y="0px"
	 viewBox="0 0 100 100" style="enable-background:new 0 0 100 100;" xml:space="preserve">
<style type="text/css">
	.st0{fill:#39444E;}
</style>
<path class="st0" d="M50,2.5L50,2.5C23.8,2.5,2.5,23.8,2.5,50l0,0c0,26.2,21.3,47.5,47.5,47.5l0,0c26.2,0,47.5-21.3,47.5-47.5l0,0
	C97.5,23.8,76.2,2.5,50,2.5z M73.3,54.2l-18,18c-2.2,2.2-5.8,2.2-8,0s-2.2-5.8,0-8l0,0l8.7-8.6H30.6c-3.1,0-5.6-2.5-5.6-5.6
	c0-3.1,2.5-5.6,5.6-5.6c0,0,0,0,0,0h25.2l-8.5-8.5c-2.2-2.2-2.2-5.8,0-8s5.8-2.2,8,0l18,18c1.1,1.1,1.7,2.6,1.6,4.2v0.2
	C75,51.7,74.4,53.1,73.3,54.2z"/>
</svg>
