<?xml version="1.0" encoding="UTF-8"?><svg id="Layer_2" xmlns="http://www.w3.org/2000/svg" viewBox="0 0 855.76 844.01"><defs><style>.cls-1,.cls-2{fill:#38444d;}.cls-2{stroke:#38444d;stroke-miterlimit:10;stroke-width:10px;}</style></defs><g id="Layer_1-2"><path class="cls-1" d="m433.73,0C201.03,0,11.73,189.31,11.73,422c0,66.61,16.08,132.8,46.33,191.87L.39,792.57c-.12.35-.04.71-.12,1.07-.18.79-.25,1.59-.27,2.41-.01.82.02,1.59.18,2.36.06.37-.02.74.09,1.11.13.47.42.83.6,1.26.21.52.42,1.01.71,1.49.49.84,1.09,1.56,1.75,2.24.34.35.61.72.98,1.02,1.13.91,2.38,1.66,3.76,2.11.02,0,.05.02.07.04,1.19.37,2.38.54,3.56.55.04,0,.07.02.12.02.01,0,.02-.01.04-.01,1.07,0,2.16-.13,3.23-.45l166.92-47.27c73.22,54.6,160.11,83.48,251.75,83.48,232.7,0,422-189.3,422-422C855.73,189.31,666.44,0,433.73,0h0Zm0,820.01c-88.38,0-172.11-28.41-242.14-82.2-.24-.18-.52-.21-.76-.37-.64-.41-1.3-.7-2-.98-.82-.34-1.6-.65-2.46-.79-.53-.1-1.04-.09-1.6-.11-1.09-.05-2.14,0-3.19.25-.17.04-.34-.01-.5.04l-150.98,42.76,52.13-161.53c1.09-3.06,1.02-6.5-.61-9.6-30.02-56.82-45.9-120.96-45.9-185.47C35.71,202.53,214.26,24,433.71,24s398,178.54,398,398c.02,219.47-178.53,398.02-397.99,398.02h0Z"/><path class="cls-2" d="m385.23,130.48c-12.35-.23-22.46,4.94-28.75,13.25-6.29,8.98-9.43,20.66-8.98,31.22,1.12,15.5,13.93,30.77,28.52,47.16,14.6,16.39,31.89,32.79,43.35,45.82,2.24,2.7,7.19,2.7,9.43,0,11.23-12.8,28.52-28.52,43.12-44.69,14.6-16.17,27.4-32.12,27.4-48.74,0-11.9-2.92-22.69-9.66-30.77-6.51-8.09-16.62-13.03-28.97-13.25-14.6.45-26.28,8.08-37.96,13.7-14.15-7.41-24.93-13.93-37.51-13.7h0Zm0,12.58c13.7.23,21.56,8.54,34.81,14.37,1.57.45,3.15.45,4.72,0,12.13-4.72,24.03-14.15,35.94-14.15,9.21,0,14.82,3.37,19.09,8.54,4.27,5.17,6.96,13.03,6.96,22.69,0,8.98-10.11,24.48-24.26,39.98-12.58,13.93-26.95,27.63-38.41,40.2-11.68-12.8-25.83-26.95-38.63-41.1-14.15-15.95-24.71-31.89-25.16-39.53-.23-9.43,2.24-17.29,6.29-22.68,4.04-5.39,9.66-8.31,18.64-8.31h0Zm54.35,191.36l-52.78-59.74c-.67-.67-1.35-1.12-2.02-1.35-15.72-6.74-31.89-4.49-44.25,5.39-11.45,9.43-17.52,25.83-9.66,41.33,28.08,39.3,56.37,78.39,84.67,117.47-13.03-2.02-28.08,3.82-38.18,14.82-8.76,11.01-11.23,26.95-6.74,41.1-17.97-3.15-33.69,4.49-44.69,16.62-11.45,13.48-11.23,31.44-6.96,43.12-15.5-2.92-31.44,1.8-39.75,10.78-9.66,10.33-12.58,28.52-6.96,43.35.23,1.12.67,2.02,1.57,2.92l77.71,82.2c21.34,21.34,51.66,24.93,81.53,17.74,29.65-7.19,59.74-24.7,83.78-46.72,22.23-20.44,48.74-46.94,61.76-79.96,13.03-33.02,11.68-72.77-20.44-115.22-19.99-22.46-39.98-45.15-60.19-67.83,8.31-28.08,16.4-56.6,24.7-84.22,4.94-20.89-4.94-36.83-22.01-45.59-18.19-7.19-39.75-.9-46.49,15.5,0,0-7.63,24.39-14.6,48.29Zm55.25-52.33c12.35,5.84,19.99,18.42,15.95,30.32-7.41,25.61-15.05,51.21-22.69,77.04l-38.63-44.02c5.39-17.74,10.33-35.94,16.17-53.68,4.72-10.11,16.84-13.48,29.2-9.66h0Zm-116.35,2.24c56.15,62.66,118.37,132.06,170.02,192.04,29.65,39.53,30.1,72.77,18.42,102.2-11.68,29.65-36.61,55.48-58.62,75.69-22.46,20.66-51.21,37.06-78.39,43.57-26.95,6.51-51.88,3.37-69.4-14.37l-76.14-80.41c-6.06-9.88-1.57-24.48,4.04-30.32,5.39-5.84,19.54-11.01,33.69-7.19,14.6,15.27,29.65,30.32,44.69,45.37,2.24,2.92,6.74,3.15,9.21.67,2.7-2.7,2.47-7.19-.45-9.43l-43.8-44.7c-6.74-15.5-2.47-31.89,3.59-38.86,8.31-9.66,24.7-16.4,40.2-13.25l47.84,54.35c2.24,2.47,6.51,2.7,8.98.45,2.47-2.24,2.92-6.51.67-8.98l-49.64-56.15c-6.06-14.37-2.02-28.3,3.37-34.36,5.84-6.29,20.21-14.37,38.41-11.9l55.03,66.26c2.24,2.47,6.51,2.92,8.98.9,2.7-2.24,3.15-6.51.9-8.98-50.31-59.97-99.95-121.5-148.01-192.71-4.94-10.11-1.35-19.09,6.51-25.61,10.33-7.41,18.87-7.64,29.87-4.27h0Z"/></g></svg>