<?xml version="1.0" encoding="UTF-8"?><svg id="Layer_2" xmlns="http://www.w3.org/2000/svg" viewBox="0 0 855.76 844.01"><defs><style>.cls-1{fill:#38444d;}</style></defs><g id="Layer_1-2"><path class="cls-1" d="m433.73,0C201.03,0,11.73,189.31,11.73,422c0,66.61,16.08,132.8,46.33,191.87L.39,792.57c-.12.35-.04.71-.12,1.07-.18.79-.25,1.59-.27,2.41-.01.82.02,1.59.18,2.36.06.37-.02.74.09,1.11.13.47.42.83.6,1.26.21.52.42,1.01.71,1.49.49.84,1.09,1.56,1.75,2.24.34.35.61.72.98,1.02,1.13.91,2.38,1.66,3.76,2.11.02,0,.05.02.07.04,1.19.37,2.38.54,3.56.55.04,0,.07.02.12.02.01,0,.02-.01.04-.01,1.07,0,2.16-.13,3.23-.45l166.92-47.27c73.22,54.6,160.11,83.48,251.75,83.48,232.7,0,422-189.3,422-422C855.73,189.31,666.44,0,433.73,0h0Zm0,820.01c-88.38,0-172.11-28.41-242.14-82.2-.24-.18-.52-.21-.76-.37-.64-.41-1.3-.7-2-.98-.82-.34-1.6-.65-2.46-.79-.53-.1-1.04-.09-1.6-.11-1.09-.05-2.14,0-3.19.25-.17.04-.34-.01-.5.04l-150.98,42.76,52.13-161.53c1.09-3.06,1.02-6.5-.61-9.6-30.02-56.82-45.9-120.96-45.9-185.47C35.71,202.53,214.26,24,433.71,24s398,178.54,398,398c.02,219.47-178.53,398.02-397.99,398.02h0Z"/><path class="cls-1" d="m747.25,449.76l-107.02-80.26v40.13h-60.81c19.84-29.61,30.71-64.5,30.71-100.33,0-99.58-81.02-180.59-180.59-180.59s-180.59,81.02-180.59,180.59c0,37.1,11.28,71.62,30.54,100.33h-120.83v20.07h136.67c14.67,16.33,32.18,29.99,51.87,40.13H118.51v20.07h270.89v20.07h-20.07v40.13h-20.07v20.07h20.07v120.4c0,33.2,27,60.2,60.2,60.2s60.2-27,60.2-60.2v-120.4h20.07v-20.07h-20.07v-40.13h-20.07v-20.07h170.56v40.13l107.02-80.26Zm-277.58,240.79c0,22.13-18,40.13-40.13,40.13s-40.13-18-40.13-40.13v-120.4h80.26v120.4Zm-80.26-140.46v-20.07h80.26v20.07h-80.26Zm60.2-40.13h-40.13v-20.07h40.13v20.07Zm-20.07-40.13c-88.51,0-160.53-72.02-160.53-160.53s72.02-160.53,160.53-160.53,160.53,72.02,160.53,160.53c0,36.47-12.65,71.87-35.52,100.33h-58.61c32.51-21.58,54-58.48,54-100.33,0-66.39-54.01-120.4-120.4-120.4s-120.4,54.01-120.4,120.4,54.01,120.4,120.4,120.4h230.76v-20.07l53.5,40.13-53.5,40.13v-20.07h-230.76Zm0-60.2c-55.32,0-100.33-45.01-100.33-100.33s45.01-100.33,100.33-100.33,100.33,45.01,100.33,100.33-45.01,100.33-100.33,100.33Z"/><path class="cls-1" d="m397.73,258.15l-10.61-17.03c-23.71,14.77-37.87,40.25-37.87,68.17,0,21.13,8.15,41.07,22.93,56.16l14.34-14.04c-11.1-11.32-17.2-26.28-17.2-42.13,0-20.93,10.62-40.05,28.42-51.14h0Z"/></g></svg>