<?xml version="1.0" encoding="UTF-8"?><svg id="Layer_2" xmlns="http://www.w3.org/2000/svg" viewBox="0 0 855.76 844.01"><defs><style>.cls-1{stroke:#38444d;stroke-miterlimit:10;stroke-width:5px;}.cls-1,.cls-2{fill:#38444d;}</style></defs><g id="Layer_1-2"><path class="cls-2" d="m433.73,0C201.03,0,11.73,189.31,11.73,422c0,66.61,16.08,132.8,46.33,191.87L.39,792.57c-.12.35-.04.71-.12,1.07-.18.79-.25,1.59-.27,2.41-.01.82.02,1.59.18,2.36.06.37-.02.74.09,1.11.13.47.42.83.6,1.26.21.52.42,1.01.71,1.49.49.84,1.09,1.56,1.75,2.24.34.35.61.72.98,1.02,1.13.91,2.38,1.66,3.76,2.11.02,0,.05.02.07.04,1.19.37,2.38.54,3.56.55.04,0,.07.02.12.02.01,0,.02-.01.04-.01,1.07,0,2.16-.13,3.23-.45l166.92-47.27c73.22,54.6,160.11,83.48,251.75,83.48,232.7,0,422-189.3,422-422C855.73,189.31,666.44,0,433.73,0h0Zm0,820.01c-88.38,0-172.11-28.41-242.14-82.2-.24-.18-.52-.21-.76-.37-.64-.41-1.3-.7-2-.98-.82-.34-1.6-.65-2.46-.79-.53-.1-1.04-.09-1.6-.11-1.09-.05-2.14,0-3.19.25-.17.04-.34-.01-.5.04l-150.98,42.76,52.13-161.53c1.09-3.06,1.02-6.5-.61-9.6-30.02-56.82-45.9-120.96-45.9-185.47C35.71,202.53,214.26,24,433.71,24s398,178.54,398,398c.02,219.47-178.53,398.02-397.99,398.02h0Z"/><path class="cls-1" d="m699.4,504.19l-26.78-21.84c-9.79-7.98-24.24-6.51-32.22,3.27l-6.97,8.55-46.82-38.4c1.74-3.67,2.86-7.68,3.2-11.87.71-8.82-2-17.61-7.42-24.13-2.81-3.37-6.26-6.1-10.08-8.06,6.07-9.89,7.07-22.28,2.88-31.01-5.68-11.86-15.02-16.24-22.43-18.14,7.75-11.01,14.95-26.89.66-44.05-5.56-6.68-13-10.64-20.73-11.68,3.37-9.81,2.68-20.53-4.62-29.68-4.99-6.25-12.9-10.34-21.72-11.24-8.82-.89-17.19,1.49-23.63,6.7l-40.21-13.32c-11.01-3.64-20.89-3.14-29.38,1.51-7.85,4.3-14.07,11.97-18.57,22.85l-12.94-10.93c-6.45-5.45-14.67-8.07-23.12-7.34-8.46.71-16.12,4.66-21.57,11.11-5.44,6.45-8.06,14.66-7.34,23.11.2,2.35.67,4.63,1.35,6.83-7.57,1.17-14.37,4.94-19.34,10.84-8.11,9.64-9.46,22.74-4.61,33.55-6.25,1.64-11.82,5.14-16.05,10.18-9.98,11.91-9.71,29.15-.14,40.78-5.08,1.87-9.61,5.02-13.18,9.3-8.49,10.17-9.54,24.23-3.74,35.37l-45.65,38.01c-8.15-8.65-21.7-9.73-31.04-2.11l-26.79,21.84c-9.78,7.97-11.25,22.42-3.27,32.21l112.66,138.18c3.85,4.73,9.33,7.68,15.43,8.29.79.08,1.59.12,2.38.12,5.25,0,10.3-1.79,14.41-5.14l26.79-21.84h0c9.78-7.97,11.25-22.43,3.27-32.21l-14.17-17.38,76.79-61.49c3.94.43,7.81.89,11.59,1.35,12.43,1.5,24.56,2.94,36.44,2.51l81.62,66.96-6.57,8.06c-7.97,9.78-6.5,24.23,3.27,32.21l26.79,21.84c4.11,3.36,9.16,5.14,14.41,5.14.79,0,1.58-.04,2.38-.12,6.1-.62,11.58-3.56,15.43-8.29l112.66-138.18c7.95-9.78,6.47-24.23-3.31-32.2h0Zm-278.35-228.88c4.36-2.39,9.67-2.49,16.24-.32l30.41,10.08-36,29.97-23.71-20.02c3.19-9.98,7.66-16.75,13.06-19.71h0Zm-71.51,11.84c3-3.55,7.28-5.38,11.6-5.38,3.46,0,6.94,1.17,9.77,3.58l53.06,44.82c3.08,2.6,4.96,6.26,5.3,10.31.35,4.06-.9,7.98-3.5,11.06-2.6,3.08-6.26,4.96-10.31,5.3-4.06.33-7.98-.9-11.06-3.5l-53.06-44.82h0c-3.07-2.6-4.96-6.26-5.3-10.31-.34-4.06.91-7.98,3.5-11.06h0Zm-25.31,40.76c2.59-3.08,6.24-4.96,10.27-5.3,4.01-.33,7.95.91,11.01,3.5l43.78,37.15c6.39,5.42,7.2,15.06,1.8,21.47-2.58,3.08-6.23,4.96-10.26,5.3-4.07.35-7.95-.91-11.01-3.5l-2.13-1.81-32.18-27.45c-.64-.55-1.33-1.05-2-1.55l-7.47-6.33c-6.38-5.43-7.2-15.06-1.8-21.47h0Zm-20.63,43.71c2.57-3.08,6.21-4.96,10.22-5.29.43-.04.86-.05,1.28-.05,3.09,0,6.03.99,8.55,2.77l33.49,28.42,2.56,2.18c6.39,5.45,7.2,15.13,1.8,21.58-2.57,3.08-6.21,4.96-10.22,5.29-3.94.33-7.76-.89-10.78-3.4l-18.35-15.75c-.45-.39-.94-.73-1.41-1.1l-15.32-13.08c-6.4-5.46-7.21-15.13-1.81-21.57h0Zm-13.3,50.05c2.57-3.08,6.18-4.95,10.18-5.28,3.7-.31,7.26.8,10.18,3.02l18.94,16.16c.12.1.24.19.36.28l9.38,8.04c6.39,5.48,7.19,15.2,1.79,21.67-2.57,3.08-6.18,4.95-10.17,5.28-3.98.32-7.86-.92-10.9-3.53l-27.95-23.98c-6.39-5.48-7.2-15.2-1.8-21.66h0Zm37.99,221.52l-26.79,21.84c-1.3,1.06-2.98,1.56-4.65,1.38-1.7-.17-3.22-.99-4.28-2.29l-112.66-138.18c-2.21-2.72-1.8-6.73.91-8.94l26.79-21.84c1.17-.96,2.6-1.43,4.01-1.43,1.84,0,3.68.8,4.93,2.34l4.29,5.26s0,0,0,0h0s88.86,108.99,88.86,108.99c0,0,0,.01.01.02l.02.02,19.47,23.88c2.21,2.71,1.8,6.72-.92,8.94h0Zm89.92-113.34c-4.96-.6-10.03-1.21-15.27-1.74-2.15-.23-4.31.42-6,1.77l-79.55,63.71-78.62-96.43,46.01-38.31,24.49,21.01c5.74,4.93,12.9,7.57,20.38,7.57.88,0,1.77-.04,2.65-.11,8.44-.7,16.07-4.66,21.51-11.16,8.19-9.8,9.44-23.22,4.34-34.15,6.23-1.65,11.79-5.14,16.02-10.18,6.09-7.27,8.34-16.53,7.02-25.28.33-.02.67-.01,1-.04,8.45-.71,16.11-4.66,21.54-11.13,5.41-6.43,7.79-14.41,7.37-22.21,1,.09,1.99.26,3.01.26.91,0,1.82-.04,2.73-.11,8.46-.71,16.12-4.66,21.56-11.11,5.44-6.45,8.06-14.66,7.35-23.12-.35-4.09-1.46-7.99-3.24-11.55l50.43-41.99c3-2.49,7.27-3.65,11.7-3.2,4.36.45,8.27,2.35,10.47,5.1,6.35,7.95,1.37,19.35-6.83,26.51-3.41,2.98-3.79,8.15-.86,11.6,2.93,3.45,8.1,3.89,11.58.99,6.47-5.39,15.99-4.28,21.66,2.54,8.27,9.93,4.19,17.2-6.38,30.34l-.71.89c-3.63,4.53-2.88,8.49-2.11,10.44,2.13,5.42,7.61,6.22,11.62,6.8,7.19,1.04,13.44,2.54,17.16,10.29,2.2,4.59.63,16.47-8.42,21.34-3.44,1.85-5.1,5.84-4.02,9.59,1.09,3.74,4.61,6.24,8.53,5.95,5.07-.37,10.08,1.74,13.32,5.63,2.68,3.22,4.01,7.67,3.65,12.21-.36,4.51-2.37,8.59-5.51,11.21l-77.43,64.43c-21.34,17.77-43.77,15.06-72.16,11.63h0Zm56.34,15.49c8.94-2.7,17.74-7.21,26.41-14.42l75.03-62.46,46.96,38.52-78.21,95.94-70.19-57.58Zm215.28-19.4l-112.66,138.18c-1.06,1.3-2.58,2.11-4.28,2.29-1.69.18-3.36-.32-4.66-1.38l-26.79-21.84h0c-2.72-2.21-3.13-6.23-.91-8.94l112.65-138.18c2.23-2.72,6.23-3.13,8.95-.91l26.78,21.84c2.72,2.21,3.13,6.22.91,8.94h0ZM420.7,192.74v-41.17c0-4.57,3.7-8.27,8.27-8.27s8.27,3.7,8.27,8.27v41.17c0,4.57-3.7,8.27-8.27,8.27s-8.27-3.71-8.27-8.27Zm-131.5,4.09c-2.28-3.96-.92-9.02,3.03-11.3,3.96-2.29,9.01-.93,11.3,3.03l20.58,35.66c2.28,3.96.92,9.02-3.03,11.3-1.3.75-2.73,1.11-4.12,1.11-2.86,0-5.64-1.48-7.18-4.14l-20.58-35.66Zm-94.28,93.66c2.28-3.96,7.33-5.32,11.3-3.03l35.66,20.58c3.96,2.28,5.31,7.34,3.03,11.3-1.54,2.65-4.31,4.14-7.18,4.14-1.4,0-2.82-.36-4.12-1.11l-35.66-20.58c-3.95-2.29-5.3-7.34-3.02-11.3h0Zm428.58,10.77c-2.28-3.96-.92-9.01,3.03-11.3l35.66-20.59c3.96-2.29,9.01-.93,11.3,3.03,2.28,3.96.92,9.01-3.03,11.3l-35.66,20.59c-1.3.75-2.73,1.11-4.12,1.11-2.86,0-5.63-1.48-7.17-4.14h0Zm-86.86-87.48l20.58-35.66c2.28-3.96,7.33-5.32,11.3-3.03,3.96,2.28,5.31,7.34,3.03,11.3l-20.58,35.66c-1.53,2.65-4.31,4.14-7.18,4.14-1.4,0-2.82-.36-4.12-1.11-3.95-2.28-5.31-7.34-3.02-11.3h0Z"/></g></svg>