<svg xmlns="http://www.w3.org/2000/svg" viewBox="9.28 7.6 245.63 31.92">
  <path fill="#231f20" d="M60.16 26.74v9.54h1.62v-7.05h.07l1.64 3.7h1.57l1.63-3.71h.07v7.06h1.68v-9.54h-2.15l-1.92 4.33h-.07l-1.93-4.33zm12.13 9.54v-9.54h-1.85v9.54Zm6.96 0h2.47v-9.54h-1.66v7.37H80l-3.23-7.37h-2.45v9.54h1.65v-7.16h.07zm6.35 0v-9.54h-1.86v9.54Zm7.78-3.86c-.1-.29-.25-.54-.45-.75-.2-.22-.48-.4-.81-.55-.34-.15-.75-.3-1.24-.44a8.37 8.37 0 0 1-.74-.24 2.03 2.03 0 0 1-.53-.28.94.94 0 0 1-.32-.39 1.3 1.3 0 0 1-.1-.55c0-.23.03-.4.1-.54a.79.79 0 0 1 .3-.3.96.96 0 0 1 .43-.16 6.24 6.24 0 0 1 2.83.4l.23-1.55a6.53 6.53 0 0 0-2.53-.5c-1.1 0-1.9.22-2.46.63-.55.42-.83 1.14-.83 2.15 0 .46.06.85.18 1.17.12.31.3.58.52.8.23.23.51.41.85.56.34.14.72.28 1.16.4.31.1.57.18.77.26.2.09.37.18.5.28.12.1.21.22.26.36.06.13.08.3.08.48 0 .24-.03.44-.11.6a.9.9 0 0 1-.31.37c-.14.09-.3.15-.48.19a4 4 0 0 1-.62.05 7.54 7.54 0 0 1-2.53-.43l-.33 1.6a8.54 8.54 0 0 0 2.76.4 7.2 7.2 0 0 0 1.63-.16c.45-.1.82-.27 1.1-.5.3-.24.5-.54.63-.91s.2-.82.2-1.35c0-.44-.05-.8-.14-1.1zm7.48-4.07v-1.61h-6.84v1.61h2.5v7.93h1.85v-7.93zm7.8 0c-.11-.36-.3-.65-.56-.9-.25-.23-.6-.41-1.04-.53a6.22 6.22 0 0 0-1.62-.18h-3.3v9.54H104v-3.74h1.41l1.85 3.74h2.14l-2.11-4.02a2.2 2.2 0 0 0 1.17-1 3.6 3.6 0 0 0 .36-1.68c0-.46-.05-.87-.16-1.23zm-1.8 1.93a.86.86 0 0 1-.26.43c-.12.1-.28.18-.49.23-.2.05-.47.08-.8.08H104v-2.7h1.32c.6 0 1.01.1 1.25.27.24.18.36.53.36 1.04 0 .26-.02.48-.07.65zm9.56 2.14c-.1-.29-.25-.54-.45-.75-.2-.22-.48-.4-.81-.55-.34-.15-.76-.3-1.24-.44a8.41 8.41 0 0 1-.74-.24 2.03 2.03 0 0 1-.53-.28.94.94 0 0 1-.32-.39 1.3 1.3 0 0 1-.1-.55c0-.23.03-.4.1-.54a.8.8 0 0 1 .3-.3.96.96 0 0 1 .43-.16 6.24 6.24 0 0 1 2.83.4l.23-1.55a6.53 6.53 0 0 0-2.53-.5c-1.1 0-1.9.22-2.46.63-.55.42-.83 1.14-.83 2.15 0 .46.06.85.18 1.17.12.31.3.58.52.8.23.23.51.41.85.56.34.14.72.28 1.16.4.31.1.57.18.77.26.2.09.37.18.5.28.12.1.21.22.26.36.06.13.08.3.08.48 0 .24-.04.44-.11.6a.9.9 0 0 1-.31.37c-.14.09-.3.15-.48.19a4 4 0 0 1-.62.05 7.54 7.54 0 0 1-2.53-.43l-.33 1.6a8.53 8.53 0 0 0 2.76.4 7.2 7.2 0 0 0 1.63-.16c.45-.1.82-.27 1.1-.5.3-.24.5-.54.63-.91s.2-.82.2-1.35c0-.44-.05-.8-.14-1.1zm7.48-4.07v-1.61h-6.84v1.61h2.5v7.93h1.85v-7.93zm8.5-1.61h-1.88l-2.04 7.93h-.07l-2.03-7.93h-1.96l2.59 9.54h2.79zm6.25 9.48c.49-.15.9-.42 1.21-.8.32-.37.56-.88.72-1.52.15-.63.23-1.43.23-2.4 0-.95-.08-1.75-.24-2.38a3.68 3.68 0 0 0-.73-1.5 2.63 2.63 0 0 0-1.21-.8 5.56 5.56 0 0 0-1.7-.24c-.66 0-1.23.07-1.72.23s-.9.43-1.22.8c-.32.39-.57.9-.73 1.53-.16.64-.24 1.44-.24 2.4s.08 1.75.24 2.38c.16.63.4 1.14.73 1.51.32.37.73.64 1.22.79a5.9 5.9 0 0 0 1.72.22 5.9 5.9 0 0 0 1.72-.22zm-2.7-1.56c-.25-.1-.45-.3-.6-.55-.15-.26-.25-.6-.3-1.03a12.18 12.18 0 0 1 0-3.19c.05-.42.15-.76.3-1.01.15-.26.35-.43.6-.54.25-.1.58-.15.97-.15s.7.05.96.15c.26.1.46.28.6.54.15.25.25.59.3 1.01a12.37 12.37 0 0 1 0 3.19c-.05.43-.15.77-.3 1.03-.14.26-.34.44-.6.55-.25.12-.57.17-.96.17-.4 0-.72-.05-.97-.17zm15.4 1.62V34.7h-4.4l4.31-6.36v-1.6h-6.14v1.58h4.06l-4.26 6.34v1.62Zm6.97 0h2l-2.91-9.54h-2.5l-2.89 9.54h1.95l.53-2h3.26zm-2.23-7.86h.07l1.17 4.3h-2.4zm7.4 10.73a5.5 5.5 0 0 0 1.42-.55 2.79 2.79 0 0 0 1.4-1.89c.1-.42.14-.9.14-1.43v-8.54h-1.86v8.69c0 .31-.02.58-.07.8a1.45 1.45 0 0 1-.76 1.01c-.2.12-.47.23-.78.32zm10.28-2.87h2l-2.9-9.54h-2.5l-2.9 9.54h1.95l.53-2h3.26zm-2.23-7.86h.07l1.17 4.3h-2.4zm11.9-1.68h-1.87l-2.04 7.93h-.07l-2.03-7.93h-1.96l2.6 9.54h2.78zm6.05 9.54h2.46v-9.54h-1.65v7.37h-.07l-3.22-7.37h-2.46v9.54h1.66v-7.16h.06zm9.74-.06c.5-.15.9-.42 1.22-.8.32-.37.56-.88.71-1.52.16-.63.23-1.43.23-2.4 0-.95-.08-1.75-.24-2.38a3.68 3.68 0 0 0-.72-1.5 2.63 2.63 0 0 0-1.22-.8 5.56 5.56 0 0 0-1.7-.24 5.6 5.6 0 0 0-1.72.23c-.48.16-.9.43-1.22.8-.32.39-.56.9-.72 1.53-.16.64-.24 1.44-.24 2.4s.08 1.75.24 2.38c.16.63.4 1.14.72 1.51.33.37.74.64 1.22.79.5.15 1.07.22 1.72.22.66 0 1.24-.07 1.72-.22zm-2.7-1.56c-.25-.1-.45-.3-.6-.55-.14-.26-.24-.6-.3-1.03-.06-.43-.09-.96-.09-1.6 0-.64.03-1.17.09-1.59.06-.42.16-.76.3-1.01.15-.26.35-.43.6-.54.26-.1.58-.15.97-.15.4 0 .71.05.97.15.25.1.45.28.6.54.14.25.25.59.3 1.01a12.37 12.37 0 0 1 0 3.19c-.05.43-.16.77-.3 1.03-.15.26-.35.44-.6.55-.26.12-.58.17-.97.17s-.71-.05-.97-.17zm14.7-7.92v6.08c0 .39-.03.71-.1.97s-.18.46-.33.62c-.15.16-.33.27-.55.33a3.07 3.07 0 0 1-1.56-.01c-.21-.05-.4-.16-.54-.32a1.51 1.51 0 0 1-.34-.64 3.98 3.98 0 0 1-.1-1.05v-5.98h-1.86v6.18c0 .64.08 1.19.24 1.63.16.44.39.8.7 1.09.3.28.67.48 1.12.61.44.13.94.2 1.5.2a4 4 0 0 0 2.72-.85c.64-.56.96-1.47.96-2.73v-6.13zm10.3 1.64c-.1-.36-.3-.66-.56-.9a2.54 2.54 0 0 0-1.04-.56 5.99 5.99 0 0 0-1.62-.18H215v9.54h1.86v-3.57h1.46c.63 0 1.15-.07 1.58-.2.44-.13.78-.33 1.05-.59.27-.25.46-.57.58-.96.12-.38.18-.82.18-1.33 0-.47-.05-.89-.17-1.25zm-1.8 1.98a.88.88 0 0 1-.26.43c-.12.1-.28.19-.49.23-.2.05-.47.08-.79.08h-1.34v-2.75h1.34c.3 0 .56.02.77.06.2.04.38.11.5.22.13.1.21.25.27.42.05.18.08.4.08.67 0 .25-.03.47-.08.64zm9.7-2c-.11-.37-.3-.66-.56-.9-.25-.24-.6-.42-1.04-.54a6.23 6.23 0 0 0-1.62-.18h-3.3v9.54h1.86v-3.74h1.41l1.85 3.74h2.14l-2.1-4.02c.53-.22.92-.55 1.16-1a3.6 3.6 0 0 0 .36-1.68c0-.46-.05-.87-.16-1.23zm-1.8 1.92a.86.86 0 0 1-.26.43c-.12.1-.28.18-.49.23-.2.05-.47.08-.8.08h-1.31v-2.7h1.32c.6 0 1.01.1 1.25.27.24.18.36.53.36 1.04 0 .26-.02.48-.07.65zm9.2 6h2l-2.92-9.54h-2.49l-2.9 9.54h1.95l.54-2h3.25zm-2.24-7.86h.07l1.17 4.3h-2.4zm11.91-1.68h-1.88l-2.04 7.93h-.07l-2.02-7.93h-1.96l2.58 9.54h2.8zm6.25 9.48c.5-.15.9-.42 1.22-.8.32-.37.56-.88.71-1.52.16-.63.23-1.43.23-2.4 0-.95-.08-1.75-.24-2.38a3.68 3.68 0 0 0-.72-1.5 2.63 2.63 0 0 0-1.22-.8 5.58 5.58 0 0 0-1.7-.24 5.6 5.6 0 0 0-1.72.23c-.48.16-.9.43-1.22.8-.32.39-.56.9-.72 1.53-.16.64-.24 1.44-.24 2.4s.08 1.75.24 2.38c.16.63.4 1.14.72 1.51.33.37.74.64 1.22.79.5.15 1.07.22 1.72.22.66 0 1.24-.07 1.72-.22zm-2.7-1.56c-.25-.1-.45-.3-.6-.55-.14-.26-.24-.6-.3-1.03-.06-.43-.09-.96-.09-1.6 0-.64.03-1.17.09-1.59.06-.42.16-.76.3-1.01.15-.26.35-.43.6-.54.26-.1.58-.15.97-.15.4 0 .71.05.97.15.25.1.45.28.6.54.14.25.25.59.3 1.01a12.37 12.37 0 0 1 0 3.19 2.9 2.9 0 0 1-.3 1.03c-.15.26-.35.44-.6.55-.26.12-.58.17-.97.17-.4 0-.71-.05-.97-.17M61.5 16.14h2.12l2.14 4.14h1.16l-2.23-4.25c.7-.12 1.2-.4 1.53-.82.33-.42.5-1.04.5-1.85 0-.49-.07-.9-.19-1.24a1.8 1.8 0 0 0-.58-.8c-.26-.21-.6-.36-1-.45-.4-.09-.86-.13-1.4-.13h-3.06v9.54h1.01zm0-4.55h1.96c.38 0 .7.02.98.07s.51.15.7.28c.18.13.32.32.41.55.1.24.14.55.14.93 0 .4-.05.71-.15.96-.1.25-.24.44-.42.57-.19.13-.42.22-.7.27-.27.04-.6.06-.96.06H61.5zm13.03 8.7v-.86h-4.7V15.9h4.07v-.86h-4.08V11.6h4.71v-.85h-5.72v9.54zm3.04-3.94h1.97c1.1 0 1.9-.22 2.41-.66.51-.44.77-1.18.77-2.22 0-.52-.07-.95-.19-1.3a1.87 1.87 0 0 0-.58-.83c-.26-.22-.6-.37-1-.46-.4-.1-.86-.14-1.4-.14h-3v9.54h1.02zm0-4.73h1.9c.37 0 .7.02.97.07.28.05.51.15.7.29.18.14.32.34.41.59.1.25.14.57.14.97 0 .42-.05.76-.15 1.01-.1.26-.24.45-.42.6-.19.13-.42.22-.7.27-.27.05-.6.08-.96.08h-1.89zm13.13-.88h-1V17c0 .91-.2 1.56-.58 1.96-.39.4-.96.6-1.73.6s-1.35-.2-1.72-.59c-.38-.4-.57-1.05-.57-1.97v-6.26h-1.01v6.37c0 1.17.28 2.01.84 2.54.57.53 1.37.8 2.4.8.53 0 1-.07 1.42-.2a2.7 2.7 0 0 0 1.07-.63c.3-.28.52-.64.67-1.08.15-.44.22-.96.22-1.58zm8.33 5.45a2 2 0 0 0-1.02-.8v-.05c.78-.33 1.17-1.03 1.17-2.13 0-.82-.23-1.44-.7-1.85-.47-.42-1.25-.62-2.32-.62h-3.04v9.54h3.04c1.13 0 1.94-.2 2.44-.62s.76-1.08.76-1.98c0-.64-.11-1.14-.33-1.49zM97.85 19c-.32.3-.8.44-1.47.44h-2.25v-3.59h2.25c.66 0 1.15.15 1.47.43.32.29.48.74.48 1.35 0 .63-.16 1.09-.48 1.38zm-.2-4.37c-.34.25-.8.37-1.39.37h-2.13v-3.4h2.13c.6 0 1.06.12 1.4.36.33.24.5.69.5 1.35 0 .64-.17 1.08-.51 1.32zm9.23 5.66v-.85h-4.46v-8.7h-1.01v9.55zm2.66 0v-9.54h-1.01v9.54zm2.64 0h1.02v-4.46h.82l3.2 4.46h1.23l-3.53-4.93 3.45-4.61h-1.17l-3.11 4.21h-.9v-4.21h-1zm13.55 0h1.07l-3.15-9.54h-1.36l-3.13 9.54h1.04l.73-2.33h4.05zm-2.8-8.64h.05l1.74 5.46h-3.52zm13.67 5.1a1.72 1.72 0 0 0-.44-.73c-.2-.2-.5-.4-.86-.56-.36-.16-.82-.34-1.38-.51a7.32 7.32 0 0 1-.82-.28c-.23-.1-.42-.22-.57-.35-.15-.13-.27-.3-.34-.5a1.9 1.9 0 0 1-.11-.73c0-.57.15-.99.44-1.24.3-.25.8-.37 1.52-.37a6.7 6.7 0 0 1 2.2.4l.17-.85a6.33 6.33 0 0 0-2.41-.44c-1.02 0-1.76.21-2.24.64-.48.43-.72 1.08-.72 1.93 0 .4.05.74.16 1.03.1.3.26.54.48.76.22.21.5.4.83.54.33.14.72.28 1.17.4.4.12.73.23.99.35.26.12.47.25.63.4.15.14.26.31.32.51a2.98 2.98 0 0 1-.04 1.56c-.08.22-.2.4-.36.52-.17.13-.37.22-.62.27a7.58 7.58 0 0 1-3.41-.35l-.22.86a6.57 6.57 0 0 0 2.61.44 6.2 6.2 0 0 0 1.46-.14c.4-.1.72-.26.98-.47.25-.21.43-.5.54-.83a4.13 4.13 0 0 0 .04-2.26zm7.48 3.54v-.85h-4.46v-8.7h-1.01v9.55zm5.98-.08c.47-.17.85-.44 1.14-.83a4 4 0 0 0 .67-1.53c.15-.63.22-1.4.22-2.34 0-.92-.08-1.7-.23-2.32a3.87 3.87 0 0 0-.68-1.52c-.3-.39-.68-.66-1.14-.83a4.6 4.6 0 0 0-1.6-.25 4.7 4.7 0 0 0-1.63.25c-.46.17-.84.45-1.15.83-.3.4-.53.9-.68 1.54-.15.63-.22 1.41-.22 2.34 0 .92.07 1.7.22 2.32.15.63.38 1.13.68 1.52.3.38.69.65 1.15.82.46.16 1 .24 1.63.24.62 0 1.16-.08 1.62-.24zm-2.88-.87c-.34-.15-.6-.38-.8-.7-.2-.33-.35-.75-.43-1.27-.08-.51-.13-1.14-.13-1.88s.05-1.37.13-1.88c.08-.51.23-.93.43-1.24.2-.32.46-.55.8-.68.33-.14.75-.2 1.24-.2.5 0 .92.06 1.25.2.33.13.6.36.8.68.2.31.34.73.43 1.24.08.5.12 1.14.12 1.88s-.04 1.37-.12 1.88a3.5 3.5 0 0 1-.43 1.26c-.2.33-.47.56-.8.71a3.1 3.1 0 0 1-1.25.22 3 3 0 0 1-1.24-.22zm8.64.95h1.43l2.87-9.54h-1l-2.52 8.56h-.06l-2.56-8.56h-1.04zm11.47 0v-.85h-4.7V15.9h4.07v-.86h-4.08V11.6h4.7v-.85h-5.71v9.54zm7.3 0h1.49v-9.54h-.94v8.45h-.05l-4.28-8.45h-1.5v9.54h.94v-8.46h.05zm5.14 0v-9.54h-1.01v9.54zm2.92-9.54v8.86c0 .33-.03.62-.08.87s-.15.47-.27.65c-.13.2-.3.35-.5.48s-.46.24-.76.32l.26.86c.46-.14.83-.3 1.14-.48a2.45 2.45 0 0 0 1.11-1.57c.07-.35.11-.75.11-1.2v-8.8zm8.9 9.54h1.06l-3.15-9.54h-1.36l-3.13 9.54H186l.73-2.33h4.06zm-2.8-8.64h.05l1.73 5.46H187l1.73-5.46"/>
  <path fill="#5e9db7" d="M34.68 10.68A27.73 27.73 0 0 0 22 7.6c-2.37 0-4.57.26-6.58.78a32.7 32.7 0 0 0-6.14 2.3l.88 14.2c.1 1.76.48 3.42 1.12 5 .64 1.57 1.48 3 2.52 4.28a16 16 0 0 0 8.2 5.36 16.08 16.08 0 0 0 8.26-5.48 16.32 16.32 0 0 0 3.54-9.16zM22 18.72l2.56 5.16 1.8-2.4 4.32 5.72c-.1.7-.39 1.23-.84 1.62-.45.38-1.12.58-2 .58-.32 0-.58-.04-.78-.12l-.6-.26c-.2-.1-.42-.18-.66-.26a2.97 2.97 0 0 0-.92-.12 2.78 2.78 0 0 0-1.52.38c-.19.1-.38.18-.58.26-.2.08-.46.12-.78.12-.35 0-.62-.04-.82-.12l-.6-.26c-.2-.1-.41-.18-.64-.26a2.78 2.78 0 0 0-.9-.12c-.37 0-.67.04-.9.12-.23.08-.44.16-.64.26s-.4.18-.6.26c-.2.08-.46.12-.78.12-.9 0-1.57-.18-1.98-.52a2.9 2.9 0 0 1-.86-1.64l4.32-5.76 1.8 2.4zm2.04 12.04a4.1 4.1 0 0 0-.6.28 2.63 2.63 0 0 1-1.48.4c-.35 0-.63-.04-.84-.12a5.13 5.13 0 0 1-.62-.28c-.2-.1-.4-.2-.62-.28-.21-.08-.5-.12-.84-.12-.37 0-.66.04-.86.12-.2.08-.4.16-.58.26-.19.1-.39.18-.6.26-.21.08-.5.12-.88.12-.32 0-.68-.07-1.08-.2a4.06 4.06 0 0 1-.34-.56l-.3-.56.76.32c.27.1.59.16.96.16.35 0 .63-.04.84-.12.21-.08.41-.17.6-.26.19-.1.4-.18.62-.26.23-.08.51-.12.86-.12s.63.04.86.12c.23.08.43.16.6.26a2.58 2.58 0 0 0 1.46.38c.35 0 .63-.04.86-.12.23-.08.43-.17.62-.26.19-.1.39-.18.6-.26.21-.08.5-.12.84-.12.35 0 .63.04.86.12.23.08.43.16.62.26s.39.18.6.26a3.26 3.26 0 0 0 1.78 0c.28-.08.55-.19.82-.32l-.32.54-.32.54-.5.16a2.6 2.6 0 0 1-2.08-.32c-.2-.1-.4-.2-.62-.28-.21-.08-.5-.12-.84-.12-.35 0-.63.04-.84.12zM22 36.64a13.94 13.94 0 0 1-5.96-4.08 3.29 3.29 0 0 0 1.64-.38c.19-.1.38-.18.58-.26.2-.08.46-.12.78-.12s.58.04.78.12c.2.08.4.16.6.26.2.1.42.18.66.26.24.08.55.12.92.12a2.8 2.8 0 0 0 1.52-.38c.19-.1.38-.18.58-.26.2-.08.46-.12.78-.12.35 0 .62.04.82.12.2.08.4.16.6.26a3.12 3.12 0 0 0 1.62.38A13.78 13.78 0 0 1 22 36.64zM32.84 24.8a15.45 15.45 0 0 1-3.32 8.64A15.16 15.16 0 0 1 22 38.52a15.18 15.18 0 0 1-9.86-9.12c-.57-1.47-.91-3-1.02-4.6l-.84-13.56a10.92 10.92 0 0 1 .8-.36l.88 13.88a14.74 14.74 0 0 0 3.08 8.06A14.58 14.58 0 0 0 22 37.64c1.47-.48 2.8-1.16 3.98-2.02a15.23 15.23 0 0 0 3.08-2.98A14.17 14.17 0 0 0 32 24.76l.88-13.88c.16.05.3.11.42.18l.38.18zM22 13.68l.44 1 1.08-.12-.64.88.64.88-1.08-.12-.44 1.04-.44-1.04-1.16.12.72-.88-.68-.88 1.12.12zm-3.12-4.12.44 1 1.08-.12-.64.88.64.88-1.08-.12-.44 1.04-.44-1.04-1.16.12.72-.88-.68-.88 1.12.12zm6.16 0 .44 1 1.08-.12-.64.88.64.88-1.08-.12-.44 1.04-.44-1.04-1.16.12.72-.88-.68-.88 1.12.12.44-1"/>
</svg>
