<?xml version="1.0" encoding="UTF-8"?><svg id="Layer_2" xmlns="http://www.w3.org/2000/svg" xmlns:xlink="http://www.w3.org/1999/xlink" viewBox="0 0 376.8 62.54"><defs><style>.cls-1{fill:url(#linear-gradient);}.cls-2{fill:#fff;}</style><linearGradient id="linear-gradient" x1="0" y1="26.55" x2="37" y2="26.55" gradientTransform="translate(0 64) scale(1 -1)" gradientUnits="userSpaceOnUse"><stop offset="0" stop-color="#fff"/><stop offset="0" stop-color="#486ed9"/><stop offset=".5" stop-color="#caec99"/><stop offset="1" stop-color="#719ab2"/></linearGradient></defs><g id="Layer_2-2"><g id="Layer_1-2"><path class="cls-2" d="m325.74,11.88v36.7h-6.22v-5.54c-1.32,1.89-3.07,3.36-5.23,4.4-2.17,1.04-4.53,1.56-7.08,1.56-4.83,0-8.64-1.35-11.42-4.05s-4.17-6.68-4.17-11.95V11.88h6.56v20.36c0,3.56.84,6.25,2.53,8.07s4.1,2.74,7.25,2.74c3.46,0,6.2-1.06,8.21-3.19,2-2.12,3.01-5.13,3.01-9V11.88h6.56Zm35.32,3.76c-2.71-2.73-6.37-4.1-10.98-4.1-2.87,0-5.44.52-7.69,1.54-2.26,1.03-4.05,2.5-5.37,4.41v-5.6h-6.29v37.11h6.56v-19.12c0-3.97,1.03-7.01,3.08-9.14,2.05-2.12,4.85-3.19,8.41-3.19,3.15,0,5.56.91,7.25,2.73s2.53,4.53,2.53,8.12v20.59h6.56v-21.35c0-5.28-1.36-9.28-4.07-12.01h.01Zm-260.44,3.48c-6.35,0-11.5,5.15-11.5,11.5s5.15,11.5,11.5,11.5,11.5-5.15,11.5-11.5-5.15-11.5-11.5-11.5Zm132,0c-6.35,0-11.5,5.15-11.5,11.5s5.15,11.5,11.5,11.5,11.5-5.15,11.5-11.5-5.15-11.5-11.5-11.5Zm-174,0c-6.35,0-11.5,5.15-11.5,11.5s5.15,11.5,11.5,11.5,11.5-5.15,11.5-11.5-5.15-11.5-11.5-11.5Zm98.91,24.09c-1.86,0-2.94-.18-3.94-1.23s-1.5-2.56-1.5-4.53v-19.74h10.59v-5.43h-10.59v-7.96h-6.69v33.39c0,3.66,1.02,6.48,3.06,8.45s4.92,2.95,8.64,2.95c1.53,0,3.02-.22,4.46-.65s2.65-1.06,3.62-1.89l-2.69-5.34c-1.44,1.15-2.93,1.97-4.97,1.97h.01ZM77.61.11v49h-7v-4.44c-3.23,2.76-7.42,4.44-12,4.44-10.22,0-18.5-8.28-18.5-18.5s8.28-18.5,18.5-18.5c4.58,0,8.77,1.68,12,4.44V.11h7Zm41.5,30.5c0,10.22-8.28,18.5-18.5,18.5-4.58,0-8.77-1.68-12-4.44v16.44h-7V12.11h7v4.44c3.23-2.76,7.42-4.44,12-4.44,10.22,0,18.5,8.28,18.5,18.5ZM251.61,12.11v37h-7v-4.44c-3.23,2.76-7.42,4.44-12,4.44-10.22,0-18.5-8.28-18.5-18.5s8.28-18.5,18.5-18.5c4.58,0,8.77,1.68,12,4.44v-4.44s7,0,7,0Zm31.62,25.55c-2.09,2.9-5.49,4.8-9.34,4.8-6.35,0-11.5-5.15-11.5-11.5s5.15-11.5,11.5-11.5c3.71,0,6.99,1.76,9.1,4.48l5.54-4.27c-3.38-4.38-8.67-7.21-14.63-7.21-10.22,0-18.5,8.28-18.5,18.5s8.28,18.5,18.5,18.5c6.19,0,11.66-3.05,15.02-7.72l-5.68-4.08h-.01Zm-5.62-26.66l11-8h-8l-6.5,4.64-6.5-4.64h-8l11,8h7Zm-144,1.99c-2.48.82-4.26,2.3-5,3.35v-4.23h-7v37h7v-19.16c.56-6.17,5-8.84,5-8.84,1.96-1.97,7.73-2.82,8.1-2.78v-6.39c-3.25,0-5.1.06-8.1,1.05Zm41.19-5.99h-7V0h7v7Zm-7,42h7V12h-7v37ZM376.8,7h-7V0h7v7Zm-7,42h7V12h-7v37ZM205.48,12.86c-2.48.82-4.26,2.3-5,3.35v-4.23h-7v37h7v-19.17c.56-6.17,5-8.84,5-8.84,1.96-1.97,7.73-2.82,8.1-2.78v-6.39c-3.25,0-5.1.06-8.1,1.05h0Z"/><path class="cls-1" d="m23.72,20.63c-5.66-2.88-12.58-.63-15.47,5.02-2.88,5.66-.63,12.58,5.02,15.47,5.66,2.88,12.58.63,15.47-5.02s.63-12.58-5.02-15.47Zm11.26,18.65c-4.01,7.88-12.9,11.64-21.12,9.5l-7.01,13.76-6.24-3.18,6.93-13.6C.37,40.49-2.16,30.66,2.02,22.47c4.64-9.1,15.78-12.72,24.88-8.08,9.1,4.64,12.72,15.78,8.08,24.88h0Z"/></g></g></svg>